<?xml version="1.0" standalone="no"?>
<!DOCTYPE svg PUBLIC "-//W3C//DTD SVG 20010904//EN"
 "http://www.w3.org/TR/2001/REC-SVG-20010904/DTD/svg10.dtd">
<svg version="1.0" xmlns="http://www.w3.org/2000/svg"
 width="800.000000pt" height="1176.000000pt" viewBox="0 0 800.000000 1176.000000"
 preserveAspectRatio="xMidYMid meet">

<g transform="translate(0.000000,1176.000000) scale(0.100000,-0.100000)"
fill="#000000" stroke="none">
<path d="M3820 11754 c-696 -64 -1307 -429 -1687 -1010 -170 -260 -286 -568
-334 -889 -22 -148 -26 -443 -9 -585 77 -611 395 -1156 890 -1526 232 -173
555 -321 830 -379 108 -23 106 -22 86 -44 -13 -14 -27 -17 -65 -13 -27 2 -58
-1 -70 -8 -56 -30 -78 -130 -46 -207 15 -36 15 -38 -16 -87 -18 -28 -41 -68
-51 -88 -10 -21 -22 -38 -27 -38 -5 0 -33 11 -62 24 -30 14 -85 30 -124 37
-58 9 -76 17 -107 47 -34 32 -42 35 -102 36 -57 1 -68 -2 -93 -26 -20 -19 -43
-29 -82 -34 -34 -4 -60 -14 -70 -26 -9 -11 -26 -32 -38 -46 -13 -15 -23 -35
-23 -44 0 -32 -52 -78 -136 -119 -47 -23 -92 -52 -100 -64 -8 -13 -17 -47 -21
-76 -5 -48 -11 -60 -54 -102 -85 -84 -103 -189 -39 -222 17 -9 30 -21 30 -28
0 -15 41 -55 83 -80 15 -10 27 -25 27 -35 0 -28 63 -111 92 -121 20 -7 28 -17
28 -34 0 -35 39 -67 83 -67 43 0 69 22 91 75 23 54 43 45 42 -19 -1 -42 -6
-60 -23 -78 -16 -17 -23 -37 -23 -66 0 -31 -5 -44 -20 -52 -35 -18 -49 -120
-17 -120 6 0 -1 -12 -15 -27 -36 -38 -42 -71 -24 -123 10 -30 12 -49 5 -62
-12 -22 -3 -62 23 -105 12 -21 17 -41 13 -54 -4 -12 -1 -27 8 -37 8 -9 18 -30
21 -47 4 -17 29 -50 57 -76 38 -35 49 -52 49 -75 0 -36 16 -54 46 -54 29 0 39
-16 35 -56 -2 -32 39 -94 63 -94 9 0 12 -39 11 -147 0 -136 3 -158 33 -270 34
-130 38 -168 22 -222 -5 -18 -14 -90 -20 -160 -14 -156 -27 -190 -72 -193 -52
-3 -62 -2 -84 6 -30 9 -81 -35 -94 -83 -6 -22 -22 -46 -39 -59 -41 -30 -57
-89 -37 -136 15 -37 11 -46 -27 -59 -10 -4 -23 -20 -28 -37 -9 -24 -17 -30
-39 -30 -50 0 -59 -25 -80 -235 -7 -75 -14 -103 -27 -112 -9 -7 -20 -13 -25
-13 -4 0 -8 -20 -8 -45 0 -43 24 -85 49 -85 4 0 12 -33 15 -72 10 -99 22 -142
51 -176 14 -17 25 -40 25 -51 0 -30 40 -67 86 -80 22 -6 85 -16 141 -23 l101
-11 -15 -33 c-21 -43 -11 -79 36 -126 l39 -38 -39 0 -39 0 0 -230 0 -230 -100
0 -100 0 0 -235 c0 -190 -3 -235 -13 -235 -31 0 -383 92 -517 135 -294 95
-700 274 -883 390 l-58 37 43 27 c102 65 153 156 153 276 0 68 -4 89 -28 137
-80 163 -276 266 -452 238 -83 -13 -189 -68 -260 -134 -32 -31 -63 -57 -68
-59 -4 -1 -140 -216 -301 -477 l-294 -475 42 -43 c69 -73 284 -256 429 -366
852 -648 1868 -1002 3092 -1077 365 -22 978 -3 1335 42 1031 130 1935 492
2680 1074 112 88 335 281 387 336 l32 34 -292 471 c-272 440 -297 475 -362
533 -83 74 -187 128 -270 141 -171 27 -374 -79 -452 -237 -24 -49 -28 -70 -28
-138 0 -120 50 -211 153 -276 l44 -28 -39 -24 c-220 -138 -556 -288 -884 -395
-140 -46 -502 -142 -536 -142 -10 0 -13 45 -13 235 l0 235 -100 0 -100 0 0
230 0 230 -72 0 -73 1 35 15 c46 20 68 41 92 88 16 32 18 43 8 64 -14 31 -9
35 79 57 35 9 89 28 118 42 51 23 61 34 108 114 6 9 22 32 37 51 27 33 58 129
58 176 0 15 14 37 35 56 30 28 35 39 35 79 0 42 -3 48 -30 62 -26 13 -30 21
-30 56 0 74 -26 140 -79 198 -27 29 -51 66 -54 80 -3 15 -17 33 -31 40 -23 13
-24 17 -19 81 6 67 5 68 -26 91 -18 13 -44 45 -58 70 -31 57 -55 69 -143 69
-66 0 -70 1 -84 28 -8 15 -22 57 -31 92 -9 36 -30 96 -46 133 l-29 69 16 71
c9 40 23 99 30 132 9 37 14 117 15 211 0 138 2 153 19 169 11 10 20 30 20 45
0 15 7 33 15 40 8 7 15 19 15 27 0 9 14 31 30 50 17 18 30 42 30 52 0 10 9 29
19 43 11 13 23 38 27 54 4 16 27 48 51 70 36 34 43 46 38 67 -5 18 1 36 19 64
17 25 29 60 32 94 3 30 14 75 25 101 22 53 24 81 8 110 -6 11 -13 50 -14 87
-7 135 -10 149 -33 174 -13 13 -27 40 -33 59 -5 20 -23 51 -39 69 -16 19 -30
39 -30 44 0 18 23 35 47 35 17 0 24 -8 33 -38 10 -39 40 -74 73 -85 19 -7 77
17 77 32 0 13 43 55 71 69 17 9 34 34 49 68 12 30 32 60 44 66 11 6 31 20 42
32 12 12 45 41 73 65 68 59 82 101 52 160 -12 23 -44 66 -71 96 -48 53 -50 57
-50 114 0 82 -27 114 -118 140 -37 11 -84 22 -105 26 -21 3 -40 11 -42 18 -2
7 -6 25 -10 40 -8 40 -90 124 -147 153 -100 51 -252 24 -324 -57 -26 -30 -40
-37 -102 -48 -39 -7 -82 -21 -96 -32 -30 -23 -36 -24 -36 -1 -1 29 -37 100
-65 124 -23 20 -26 28 -21 60 8 49 -11 132 -35 154 -12 11 -19 30 -19 56 0 44
-21 92 -47 107 -21 11 -29 8 117 46 277 71 530 195 771 376 483 364 793 905
869 1515 18 147 14 421 -9 580 -141 961 -882 1714 -1846 1875 -117 19 -427 33
-535 23z m545 -163 c139 -26 253 -58 380 -106 620 -233 1109 -778 1275 -1421
48 -186 64 -318 64 -529 0 -132 -5 -225 -17 -304 -73 -470 -279 -868 -619
-1196 -269 -261 -568 -429 -925 -521 -177 -45 -331 -64 -523 -64 -345 0 -657
75 -963 232 -415 213 -765 589 -953 1023 -312 721 -192 1563 308 2160 336 402
782 654 1303 736 167 26 509 21 670 -10z m-256 -4274 c13 -17 3 -110 -15 -134
-12 -16 -14 -17 -29 -2 -8 8 -18 39 -22 69 -5 45 -3 55 12 66 24 18 40 18 54
1z m154 7 c3 -4 -4 -15 -18 -25 -13 -11 -31 -41 -41 -67 -9 -26 -24 -54 -31
-62 -13 -13 -16 -13 -29 4 -8 11 -14 37 -14 59 0 52 43 97 93 97 18 0 37 -3
40 -6z m-361 -21 c13 -12 18 -30 18 -69 0 -56 -9 -69 -40 -59 -13 4 -25 25
-37 62 -17 53 -17 56 2 69 24 18 34 18 57 -3z m116 -68 c-3 -42 -6 -50 -23
-50 -13 0 -26 13 -38 37 -21 43 -16 71 16 86 32 15 49 -11 45 -73z m-209 39
c14 -31 14 -111 1 -119 -20 -12 -56 32 -74 92 -5 15 -1 28 13 42 24 24 44 19
60 -15z m611 4 c11 -12 19 -29 18 -37 -3 -17 -89 -80 -100 -74 -5 2 -8 0 -8
-5 0 -5 23 -23 51 -41 l51 -31 -22 34 c-17 29 -19 39 -10 56 17 32 53 22 61
-16 3 -17 13 -42 22 -55 23 -33 21 -55 -10 -108 -16 -28 -20 -41 -10 -33 21
18 37 8 29 -20 -3 -14 -1 -19 6 -14 18 11 61 -41 68 -82 5 -25 2 -45 -10 -65
-18 -32 -21 -51 -7 -42 19 11 29 -32 30 -137 1 -92 -1 -108 -14 -108 -9 0 -13
-5 -10 -10 8 -13 -3 -50 -15 -50 -5 0 -17 16 -26 35 -23 49 -29 37 -10 -19 30
-88 16 -108 -41 -58 -32 28 -53 89 -53 151 0 33 17 40 39 19 8 -9 7 0 -3 24
-21 49 -21 48 14 99 41 61 39 100 -9 180 -34 57 -38 69 -34 114 6 59 -19 99
-65 110 -43 9 -92 43 -92 63 0 32 26 57 59 57 36 0 47 19 13 23 -31 5 -66 -20
-82 -57 -15 -38 -26 -39 -34 -6 -15 61 54 125 135 125 37 0 53 -5 69 -22z
m-739 -9 c29 -15 79 -88 79 -116 0 -31 -14 -29 -38 5 -11 15 -35 35 -54 46
l-33 18 27 -23 c23 -22 48 -59 48 -73 0 -16 -29 -3 -55 24 -37 38 -52 39 -24
1 25 -35 17 -56 -42 -112 -35 -32 -39 -41 -39 -85 0 -32 -7 -59 -20 -79 -28
-42 -26 -105 6 -177 24 -52 26 -63 15 -97 -6 -21 -11 -67 -10 -102 1 -55 2
-60 10 -34 5 17 6 42 3 58 -3 16 -1 27 5 27 39 0 38 -151 -2 -187 -40 -37 -45
-36 -98 17 -39 39 -52 60 -56 91 -6 39 -6 39 29 39 36 0 78 34 92 74 5 15 1
14 -18 -7 -30 -32 -63 -41 -99 -28 -30 11 -37 45 -12 55 19 7 19 26 0 62 -20
38 -20 114 -1 114 18 0 76 -49 59 -50 -18 0 -16 -11 8 -39 16 -20 22 -22 29
-11 12 20 2 40 -45 90 -55 59 -69 100 -50 146 17 42 53 94 64 94 14 0 34 -58
28 -80 -3 -11 -1 -18 4 -15 19 12 21 76 4 116 -16 34 -16 43 -4 67 22 45 23
48 2 30 -29 -26 -33 -23 -33 26 0 63 23 87 88 94 28 2 57 11 63 18 14 17 43
18 70 3z m505 -134 c113 -38 194 -82 194 -105 0 -10 5 -22 10 -25 6 -3 10 -20
10 -36 0 -16 11 -52 25 -79 25 -49 33 -100 16 -100 -5 0 -23 -13 -40 -29 -36
-34 -40 -67 -11 -104 21 -27 26 -62 10 -72 -5 -3 -10 -39 -10 -80 0 -76 -5
-85 -51 -85 -14 0 -26 -14 -39 -45 -23 -53 -36 -57 -42 -12 -3 17 -8 40 -12
49 -6 13 -2 19 18 24 30 7 76 57 76 83 0 9 9 34 20 56 23 46 20 59 -5 18 -59
-100 -227 -107 -316 -13 l-37 38 -33 -34 c-47 -49 -127 -86 -190 -87 -48 -2
-54 1 -88 38 -20 22 -45 47 -56 55 l-20 15 20 -24 c14 -17 20 -38 20 -75 l0
-51 58 -19 c63 -20 76 -41 58 -89 -14 -36 -28 -34 -48 7 -12 27 -23 35 -53 40
-52 8 -65 28 -63 94 2 42 -2 60 -18 80 l-20 26 36 33 c45 42 41 61 -26 125
-57 54 -61 76 -23 132 15 22 29 60 33 92 9 63 12 66 127 125 141 72 318 85
470 34z m987 -191 c32 -17 36 -56 10 -94 l-16 -25 26 24 c15 14 27 30 27 38 0
14 26 18 34 5 3 -5 -2 -21 -10 -37 -19 -36 -12 -43 10 -10 22 33 36 24 36 -24
0 -69 -50 -108 -102 -80 -26 14 -34 4 -43 -51 l-7 -45 22 20 23 20 -8 -25 c-4
-14 -10 -42 -12 -63 -5 -35 -10 -41 -51 -58 -26 -11 -50 -26 -54 -32 -13 -20
-9 -54 7 -67 13 -10 15 -9 15 8 0 21 56 72 78 72 15 0 14 -18 -2 -93 -13 -64
-37 -91 -91 -103 -46 -10 -96 -37 -92 -48 3 -7 26 -10 57 -8 39 2 61 9 83 28
36 31 47 20 40 -40 -7 -59 -26 -82 -88 -111 -64 -31 -79 -59 -45 -87 18 -15
21 -21 11 -31 -9 -9 -18 -8 -39 3 -20 12 -28 25 -30 52 -4 48 10 73 58 103 25
16 40 33 40 45 0 19 -2 20 -30 5 -56 -29 -97 -14 -115 43 -9 31 1 82 23 110
l18 24 37 -22 c33 -19 41 -21 67 -10 33 13 42 35 11 25 -31 -9 -69 15 -81 51
-19 55 -10 76 43 105 62 33 68 40 77 87 l7 40 -32 -34 c-20 -21 -42 -34 -57
-34 -34 0 -61 -33 -62 -78 -2 -30 -6 -38 -23 -40 -35 -5 -63 15 -63 46 0 14
15 52 34 82 19 31 38 69 41 85 l7 30 -22 -35 c-21 -32 -23 -33 -36 -15 -8 10
-14 33 -14 49 0 17 -4 37 -8 43 -12 19 -13 -56 -2 -102 9 -34 7 -50 -18 -115
l-28 -75 -49 -3 c-57 -4 -78 -17 -70 -43 7 -20 -9 -25 -39 -13 -26 10 -20 67
9 94 14 13 25 34 25 46 0 21 2 21 30 11 40 -15 79 0 107 42 32 47 30 75 -2 35
-20 -26 -34 -33 -77 -38 -66 -8 -82 -18 -75 -45 13 -52 -54 -6 -72 48 -26 78
42 170 158 216 36 14 66 24 67 22 5 -5 -11 -24 -31 -36 -18 -10 -16 -11 12 -6
17 4 40 2 51 -4 17 -9 21 -5 30 27 30 100 162 148 265 96z m-2174 -10 c45 -37
67 -118 51 -185 -7 -27 -16 -49 -21 -49 -5 0 -2 -14 6 -30 19 -37 11 -54 -21
-46 l-23 6 24 -24 c29 -29 34 -90 11 -121 -13 -18 -14 -18 -41 3 -15 12 -35
22 -44 21 -12 0 -11 -3 4 -10 36 -17 65 -71 65 -120 0 -71 -42 -111 -79 -76
-11 10 -11 8 -2 -11 6 -12 23 -29 36 -38 14 -9 30 -34 37 -55 15 -50 0 -84
-44 -103 l-33 -14 32 -1 c34 -1 44 -16 45 -70 2 -55 -49 -105 -94 -93 -23 6
-22 10 2 47 29 43 25 60 -21 102 -56 53 -86 115 -69 143 8 14 101 -51 111 -79
5 -12 8 -9 14 12 7 25 2 35 -37 75 -61 63 -95 111 -103 145 -9 35 8 36 38 2
13 -15 36 -27 54 -30 18 -2 37 -6 42 -9 13 -9 25 34 13 46 -5 5 -29 14 -53 19
-53 12 -69 25 -69 55 0 26 27 33 46 14 8 -8 15 -6 24 4 19 24 4 45 -38 52 -78
12 -81 34 -8 53 77 19 104 78 72 156 -15 34 -68 75 -96 74 -8 0 -4 -5 10 -10
97 -39 103 -152 10 -199 -22 -11 -45 -18 -50 -15 -18 11 -10 40 12 50 13 6 27
22 32 38 15 42 -19 71 -86 73 -47 2 -55 5 -75 35 -27 39 -28 57 -7 87 18 26
65 30 84 7 7 -9 15 -13 18 -10 8 8 -39 55 -55 55 -7 0 -13 5 -13 10 0 19 73
11 97 -11 l22 -22 10 26 c13 34 37 46 88 47 30 0 50 -7 72 -26z m192 -61 c21
-14 39 -30 39 -34 0 -5 -28 -10 -62 -10 -35 -1 -52 -3 -38 -5 117 -18 203 -54
214 -93 12 -41 17 -128 8 -151 -6 -16 -6 -34 0 -50 5 -14 12 -72 14 -130 4
-109 17 -160 40 -160 10 0 10 -7 -2 -36 -9 -22 -12 -48 -8 -70 5 -26 2 -40
-11 -54 -9 -10 -19 -37 -22 -60 -4 -25 -13 -44 -24 -50 -21 -12 -42 -70 -33
-94 4 -11 -3 -27 -21 -46 -25 -26 -27 -34 -22 -74 5 -33 3 -45 -8 -50 -19 -7
-30 -72 -15 -90 9 -12 8 -20 -5 -40 -12 -19 -15 -36 -11 -63 7 -38 8 -50 7
-108 -2 -124 2 -169 14 -199 15 -35 20 -86 10 -86 -3 0 -17 7 -31 16 -19 13
-22 19 -13 31 9 10 9 17 1 25 -7 7 -12 31 -12 55 0 24 -5 43 -10 43 -6 0 -9
-12 -8 -27 3 -44 -11 -72 -38 -79 -34 -9 -43 3 -16 22 40 28 22 74 -30 74 -33
0 -35 9 -10 40 15 19 21 20 44 9 15 -6 33 -9 41 -6 20 8 40 102 27 127 -5 10
-10 28 -10 39 0 12 -7 21 -15 21 -19 0 -19 10 1 38 14 21 14 25 -3 50 -27 40
-31 55 -21 75 11 22 28 22 28 0 0 -15 2 -16 15 -3 13 13 11 23 -10 81 -23 64
-23 68 -6 83 23 21 31 20 31 -3 0 -11 5 -23 11 -27 21 -12 4 127 -16 142 -16
12 -15 14 4 26 12 7 21 20 21 30 0 9 4 19 9 22 11 7 22 -19 16 -36 -3 -7 2
-31 10 -53 l14 -40 1 51 c0 28 -7 72 -16 98 -15 43 -15 49 -1 63 13 14 18 11
41 -23 24 -36 26 -37 26 -14 0 14 -7 39 -16 55 -33 62 -46 125 -34 156 13 31
30 39 30 15 0 -8 11 -36 25 -62 23 -44 25 -45 25 -18 0 26 -32 90 -74 149 -12
17 -12 25 1 58 18 45 29 47 38 7 4 -16 11 -32 15 -35 12 -7 -16 73 -35 102
-19 29 -56 63 -69 63 -5 0 0 -9 12 -20 27 -25 38 -67 25 -89 -12 -18 -59 -38
-69 -28 -4 4 -2 13 5 20 18 22 3 44 -42 62 -23 9 -52 26 -65 38 l-23 21 20
-44 c12 -28 30 -49 46 -56 14 -6 35 -25 45 -42 14 -22 27 -32 45 -32 18 0 26
-7 31 -25 9 -37 -1 -54 -48 -75 l-42 -19 47 -20 c40 -17 47 -24 47 -48 0 -40
-13 -56 -57 -69 -25 -8 -31 -12 -17 -13 31 -1 46 -24 38 -58 -9 -39 -33 -63
-63 -63 -23 -1 -24 -2 -8 -11 25 -14 23 -83 -3 -109 -21 -21 -65 -27 -75 -10
-3 6 -12 10 -18 10 -16 -1 32 -40 48 -40 14 0 35 -50 35 -81 0 -29 -50 -61
-87 -57 -43 5 -41 -2 7 -30 32 -18 40 -28 40 -51 0 -35 -31 -64 -70 -64 -30 0
-30 0 -11 -21 33 -37 43 -64 31 -86 -13 -24 -41 -40 -72 -40 -21 0 -20 -2 9
-20 33 -20 53 -48 53 -75 0 -27 -46 -65 -80 -65 -37 0 -39 13 -4 28 40 19 28
52 -31 84 -74 40 -93 79 -61 123 13 18 14 18 44 -6 17 -13 31 -30 31 -37 1
-10 6 -10 21 -2 30 16 25 52 -9 72 -16 9 -37 28 -46 42 -16 23 -16 27 1 55
l17 29 34 -25 c18 -14 40 -23 48 -19 30 11 16 44 -35 80 -27 20 -50 42 -50 48
1 7 14 28 30 47 l29 34 10 -24 c5 -14 16 -31 25 -39 15 -11 19 -11 34 3 15 16
13 20 -36 65 -29 27 -52 55 -52 63 1 8 14 30 30 48 l30 35 28 -27 c34 -32 42
-34 42 -7 0 12 -15 29 -39 44 -28 18 -40 33 -44 58 -3 18 -8 40 -11 48 -3 8
-1 22 4 30 8 13 15 10 40 -17 17 -18 39 -33 48 -33 9 0 29 -7 45 -14 26 -14
27 -14 27 8 0 18 -9 24 -47 35 -60 16 -81 34 -93 85 -6 23 -16 51 -22 64 -10
18 -9 28 2 45 8 12 17 49 20 82 l5 60 30 -45 c31 -46 91 -77 123 -65 22 8 -12
42 -52 50 -68 15 -72 22 -70 136 1 57 5 112 8 121 4 9 0 32 -9 51 -15 33 -15
37 0 61 24 36 34 90 25 130 -14 63 24 70 101 19z m86 1 c37 -18 83 -77 83
-107 0 -15 -10 -9 -49 25 -59 51 -97 98 -81 98 7 0 28 -7 47 -16z m-543 -183
c50 -12 66 -32 46 -56 -11 -14 -33 -22 -120 -46 l-45 -13 64 -7 c59 -6 68 -10
98 -45 28 -33 33 -45 29 -74 -3 -19 -8 -54 -12 -78 -3 -24 -1 -62 6 -86 10
-37 9 -48 -5 -76 -13 -24 -15 -46 -11 -80 7 -50 -1 -60 -45 -60 -14 0 -26 -14
-40 -47 -17 -39 -23 -44 -28 -30 -6 17 -8 16 -19 -7 -12 -27 -51 -43 -78 -32
-16 6 -16 29 1 70 7 16 5 18 -9 13 -10 -4 -30 -10 -44 -13 -24 -6 -22 -2 23
45 46 48 69 60 138 75 16 4 32 17 39 32 10 22 8 29 -24 62 -19 20 -49 58 -67
85 -54 81 -85 62 -195 -117 -13 -21 -20 -25 -26 -16 -9 14 -4 36 14 61 6 8 -4
-1 -21 -20 -26 -29 -33 -32 -33 -17 0 10 9 35 21 55 l21 36 -36 -39 c-29 -31
-37 -36 -42 -23 -9 25 33 75 85 102 90 47 115 57 169 65 76 13 77 20 0 20 -58
0 -70 -4 -114 -35 -27 -19 -52 -35 -56 -35 -20 0 -5 31 29 60 24 22 39 44 42
67 6 34 22 48 79 69 22 9 22 9 -12 44 -34 36 -65 43 -97 24 -24 -13 -41 -52
-34 -74 7 -21 25 -28 25 -10 0 6 7 10 15 10 18 0 19 -21 5 -70 -7 -23 -24 -44
-50 -62 -23 -16 -40 -36 -40 -47 0 -25 -38 -71 -58 -70 -9 0 -27 13 -40 29
-22 28 -22 31 -7 60 9 17 38 55 65 86 45 48 50 59 50 100 0 25 4 53 10 63 5
10 46 33 90 51 55 22 87 42 101 62 l21 30 38 -40 c26 -27 53 -43 84 -51z
m2664 39 c50 -16 99 -30 107 -30 9 0 29 -7 45 -15 30 -15 49 -61 64 -156 4
-22 18 -47 37 -65 36 -33 89 -112 89 -131 0 -7 -8 -13 -18 -13 -10 0 -24 -6
-30 -12 -10 -10 -21 -3 -52 31 -38 41 -59 48 -68 23 -2 -6 12 -18 30 -25 18
-8 44 -26 56 -40 20 -21 22 -29 13 -46 -7 -12 -13 -21 -14 -21 -2 0 -25 20
-52 45 -62 56 -79 59 -25 5 22 -22 40 -46 40 -54 0 -22 -22 -31 -34 -14 -28
37 -67 80 -52 58 45 -70 49 -81 31 -99 -16 -15 -20 -13 -53 29 -21 24 -51 59
-69 76 -18 17 -29 34 -26 38 15 15 34 3 63 -40 38 -54 50 -52 21 3 -21 42 -79
93 -106 93 -43 0 -85 -52 -85 -105 0 -15 -11 -36 -27 -51 -25 -23 -28 -24 -34
-7 -5 14 -8 11 -13 -14 -13 -58 25 -96 92 -93 58 3 62 1 60 -23 -1 -12 6 -36
17 -53 23 -40 16 -59 -25 -67 -44 -9 -67 7 -80 53 -11 43 -33 60 -75 60 -36 0
-58 52 -44 104 7 24 7 48 0 74 -15 50 -15 48 22 44 27 -3 43 4 86 38 29 23 51
44 48 46 -2 2 -29 -5 -61 -16 -31 -10 -63 -17 -70 -14 -10 4 -14 27 -14 85 -1
70 1 80 20 90 21 11 112 8 156 -6 39 -13 24 9 -26 37 -33 19 -52 24 -62 18 -8
-6 -27 -10 -42 -10 -34 0 -50 28 -46 78 2 29 8 38 25 40 12 2 37 21 55 42 18
21 34 39 34 39 1 1 42 -12 92 -29z m-2874 -146 c25 -24 11 -32 -39 -21 -36 8
-42 13 -34 24 15 18 54 16 73 -3z m2116 -98 c-10 -43 -10 -58 -1 -70 10 -11 8
-17 -7 -28 -10 -7 -27 -29 -36 -48 l-17 -35 20 25 c11 14 21 28 21 31 0 9 31
21 37 15 3 -2 0 -19 -6 -38 -6 -18 -13 -44 -15 -58 -3 -14 -14 -35 -24 -46
-25 -27 -34 -71 -23 -109 9 -29 9 -28 10 15 2 58 45 116 79 106 18 -6 20 -11
12 -32 -6 -14 -10 -42 -10 -62 0 -24 -8 -44 -24 -61 -16 -16 -27 -43 -31 -71
-7 -50 -7 -50 48 30 29 42 57 53 57 22 0 -33 -20 -85 -41 -108 -18 -19 -20
-29 -14 -66 5 -26 10 -37 14 -28 17 39 55 90 65 87 23 -8 16 -49 -18 -105 -40
-64 -42 -74 -21 -117 10 -20 13 -22 9 -7 -6 26 51 125 70 119 25 -8 17 -63
-19 -122 -31 -53 -35 -66 -35 -131 0 -39 -2 -87 -5 -105 l-5 -34 18 37 19 38
21 -23 c12 -13 22 -32 22 -43 1 -10 7 -30 14 -43 17 -30 12 -45 -31 -95 -33
-40 -43 -79 -22 -92 15 -9 68 44 85 84 16 35 32 41 40 15 3 -10 10 -26 15 -36
11 -20 3 -34 -38 -72 -32 -29 -38 -67 -15 -88 18 -17 21 -16 54 25 19 24 38
51 41 61 11 31 32 13 31 -26 -1 -23 -11 -47 -28 -67 -31 -38 -33 -59 -5 -94
26 -32 39 -33 39 -2 0 14 11 38 25 54 14 17 25 36 25 43 0 24 16 40 33 33 26
-10 20 -54 -13 -98 -36 -48 -39 -87 -7 -109 20 -14 20 -16 3 -16 -10 -1 -34
13 -53 29 -18 17 -39 30 -46 30 -17 0 -60 47 -75 82 -6 15 -20 28 -33 30 -18
2 -27 14 -38 51 -9 30 -20 47 -31 47 -8 0 -26 7 -39 16 -20 14 -23 23 -19 58
3 22 14 61 25 86 30 65 36 90 24 90 -6 0 -11 -5 -11 -10 0 -6 -15 -33 -34 -60
-30 -43 -33 -55 -29 -92 3 -24 12 -61 19 -83 12 -37 12 -41 -8 -63 -15 -15
-22 -34 -21 -58 1 -31 -3 -37 -28 -46 -21 -7 -32 -20 -40 -49 -13 -43 -3 -64
38 -80 12 -4 29 -24 37 -44 9 -20 30 -44 50 -56 30 -17 39 -32 56 -87 35 -113
42 -199 31 -357 -6 -79 -10 -179 -10 -222 l2 -78 8 75 c4 41 15 130 25 197 11
84 15 170 13 273 -4 125 -2 150 10 148 61 -12 90 -209 56 -388 -37 -192 -40
-237 -21 -278 10 -20 27 -72 37 -114 10 -43 25 -94 34 -114 18 -43 18 -44 5
-44 -5 0 -23 19 -40 42 -32 44 -39 44 -16 0 22 -42 47 -60 108 -76 92 -24 95
-27 108 -108 15 -96 17 -107 19 -80 0 12 7 22 15 22 21 0 26 -13 17 -46 -6
-25 -12 -29 -42 -29 -33 0 -34 1 -34 43 0 38 -5 47 -42 78 -28 24 -43 44 -43
59 0 31 -21 51 -64 59 -48 9 -84 58 -118 160 -15 45 -28 76 -28 69 0 -27 31
-156 45 -183 17 -33 63 -72 76 -64 18 11 49 -18 59 -56 7 -27 24 -50 51 -72
31 -25 39 -38 37 -58 -3 -21 -8 -25 -37 -25 -21 0 -36 6 -39 14 -3 10 1 12 17
8 22 -5 29 7 10 18 -6 4 -21 -3 -34 -15 -22 -20 -25 -21 -31 -6 -3 9 -4 25 -1
36 7 25 -8 80 -28 105 -14 19 -15 19 -7 -5 4 -14 6 -51 4 -82 -4 -57 -5 -58
-33 -58 -35 0 -109 67 -109 98 0 10 -9 27 -20 37 -11 10 -20 25 -20 33 0 8
-11 34 -24 57 -14 23 -36 82 -50 132 -26 93 -48 146 -90 220 -13 24 -32 77
-42 118 -17 72 -17 80 0 182 24 149 32 366 16 442 -11 52 -10 62 4 82 9 13 16
35 16 49 0 16 10 35 25 48 18 16 25 32 25 59 1 21 7 49 15 63 16 27 20 117 6
138 -5 9 0 22 16 38 19 19 24 34 24 77 -1 28 0 67 1 85 0 18 -7 41 -17 52 -14
16 -15 24 -6 51 17 49 13 83 -14 123 -14 20 -25 48 -25 62 0 32 -16 64 -43 86
-17 13 -20 25 -18 67 2 38 -3 60 -18 85 -11 18 -18 35 -15 39 3 3 -2 19 -11
37 -14 27 -15 39 -5 80 6 27 10 60 8 73 -1 14 5 34 15 45 10 11 24 53 32 94
17 96 32 135 47 120 8 -8 8 -25 -2 -66z m-588 8 c22 -4 42 -13 45 -21 8 -19
-34 -61 -66 -66 l-26 -4 27 -2 c18 -1 36 9 59 34 19 19 37 35 42 35 18 0 -5
-56 -34 -82 -24 -23 -38 -28 -82 -28 -74 0 -117 28 -117 75 0 36 20 55 59 55
11 0 26 10 33 23 10 19 13 20 16 5 2 -12 17 -20 44 -24z m183 -95 c7 -99 1
-115 -56 -144 -30 -16 -323 -19 -351 -4 -33 18 -40 47 -33 135 6 65 11 84 23
84 17 0 50 -34 72 -75 31 -58 126 -82 195 -49 18 8 45 33 59 55 15 21 31 39
36 39 6 0 10 8 10 18 0 22 8 32 25 32 8 0 15 -31 20 -91z m627 64 c10 -9 38
-19 61 -23 l42 -6 -55 -36 c-30 -21 -77 -42 -105 -48 -76 -16 -85 -20 -85 -37
0 -12 9 -14 48 -10 26 3 60 8 75 12 26 7 28 6 21 -19 -4 -16 -1 -32 6 -41 19
-23 5 -41 -44 -55 -54 -15 -61 -22 -46 -50 9 -17 8 -20 -13 -20 -49 0 -64 56
-27 103 26 32 25 47 0 40 -31 -8 -60 24 -60 65 0 27 8 43 39 72 21 21 53 41
70 45 17 3 33 11 36 16 9 13 16 11 37 -8z m-379 -104 c24 -20 37 -40 37 -56 0
-41 -28 -93 -60 -111 -16 -9 -30 -20 -30 -24 0 -19 -54 -68 -76 -68 -27 0 -31
12 -9 30 22 18 18 43 -9 69 -22 20 -41 71 -28 71 3 0 17 -10 30 -22 l25 -23
-7 25 c-4 14 -10 36 -13 50 l-5 25 21 -25 21 -25 0 23 c0 53 39 2 40 -53 0
-30 3 -36 10 -25 17 27 11 66 -15 90 -33 31 -31 41 8 34 26 -4 29 -3 15 6 -21
13 -24 40 -5 40 8 0 30 -14 50 -31z m-1002 -39 c18 -22 35 -40 39 -40 4 0 15
18 25 40 10 22 22 40 27 40 11 0 25 -35 34 -85 l7 -40 13 33 c8 17 21 32 29
32 18 0 17 3 6 -38 -11 -39 -6 -41 21 -7 22 29 38 25 38 -10 0 -26 -33 -55
-62 -55 -21 0 -33 -38 -24 -80 3 -17 2 -30 -3 -30 -18 0 -91 78 -91 98 0 12
-15 33 -36 49 -50 39 -96 133 -64 133 5 0 24 -18 41 -40z m1929 28 c0 -11 -61
-123 -75 -138 -11 -13 -15 -25 -10 -37 7 -16 9 -14 19 10 7 20 16 27 31 25 11
-2 19 -10 19 -19 -1 -11 5 -15 17 -12 15 4 19 0 19 -18 0 -22 2 -22 20 9 23
38 35 40 51 10 10 -19 8 -25 -22 -49 -25 -21 -29 -29 -17 -29 10 0 23 9 30 20
7 11 20 20 30 20 28 0 2 -59 -29 -66 -17 -5 -21 -10 -14 -17 16 -16 14 -27 -4
-27 -9 0 -37 22 -63 48 -37 38 -56 50 -90 56 -53 8 -61 26 -29 68 13 18 30 50
36 70 7 21 24 47 38 58 22 17 43 26 43 18z m-2803 -30 c11 -13 37 -47 57 -76
40 -61 37 -92 -11 -92 -15 0 -49 -17 -79 -40 -61 -46 -100 -64 -109 -50 -4 6
-4 14 -1 19 3 4 -6 19 -19 31 -25 23 -34 60 -15 60 5 0 14 -9 20 -20 6 -11 16
-20 22 -20 6 0 4 8 -5 18 -30 33 -19 71 36 130 28 29 57 42 57 25 0 -4 -21
-25 -46 -48 l-47 -40 28 -40 c16 -24 25 -31 20 -17 -7 24 4 29 22 11 9 -9 11
-7 7 8 -7 27 12 38 34 21 15 -11 16 -11 4 3 -10 13 -10 19 2 29 9 6 20 9 26 5
19 -12 10 -38 -22 -67 l-33 -28 37 20 c58 33 61 42 29 81 -15 19 -30 42 -34
52 -4 9 -18 22 -32 27 -33 12 -32 20 3 20 17 0 37 -9 49 -22z m-322 -7 c10
-17 -12 -21 -25 -6 -10 12 -10 15 3 15 9 0 18 -4 22 -9z m295 -53 c0 -16 -77
-61 -84 -49 -10 16 41 60 72 61 6 0 12 -6 12 -12z m2885 -38 c-8 -13 -16 -13
-60 5 -30 13 -34 19 -25 30 10 12 18 12 51 -6 22 -11 37 -24 34 -29z m-1154
-32 c19 -24 25 -58 10 -58 -6 0 -7 -16 -4 -35 5 -30 1 -39 -30 -70 -26 -26
-43 -35 -69 -35 -45 0 -51 7 -27 31 23 23 25 52 4 69 -16 14 -21 60 -6 60 5 0
19 -12 31 -27 l22 -28 -2 30 c-3 46 -1 52 14 32 12 -16 14 -15 20 18 8 41 12
42 37 13z m-601 -14 c0 -13 3 -14 15 -4 20 16 35 4 35 -28 1 -26 1 -26 16 -7
15 19 16 19 26 2 9 -18 11 -18 34 4 21 20 24 21 24 4 0 -10 -10 -33 -21 -52
-15 -23 -19 -43 -16 -63 13 -62 -72 -44 -108 23 -11 20 -28 40 -37 43 -27 8
-34 51 -13 74 22 24 45 26 45 4z m1229 0 c2 -2 -2 -21 -10 -41 -11 -29 -25
-43 -58 -59 -49 -24 -61 -38 -60 -74 l0 -25 11 22 c7 14 24 25 45 29 18 3 36
10 39 15 9 16 22 10 44 -21 26 -37 17 -55 -35 -64 -37 -7 -55 -30 -55 -68 1
-22 1 -22 14 -5 8 10 31 23 52 29 22 5 47 17 56 25 21 19 38 9 38 -23 0 -24
-8 -33 -67 -80 -35 -27 -44 -69 -21 -92 9 -9 14 -5 22 20 6 18 22 38 36 45 13
6 32 22 41 35 17 22 18 22 38 4 33 -30 27 -62 -19 -91 -43 -27 -60 -66 -40
-90 18 -22 38 -18 46 8 9 30 63 97 77 97 7 -1 22 -9 35 -20 28 -23 20 -46 -34
-86 -42 -33 -57 -58 -49 -84 8 -25 33 -26 43 -1 4 10 29 42 55 70 39 42 51 50
63 40 21 -17 18 -23 -31 -90 -42 -57 -54 -87 -39 -102 4 -3 27 14 51 38 54 54
73 57 73 13 0 -26 -9 -40 -42 -68 -49 -43 -48 -70 3 -70 27 0 30 -2 19 -15 -7
-8 -22 -15 -33 -15 -28 0 -67 38 -67 66 0 15 -8 24 -24 28 -14 3 -27 15 -31
26 -3 11 -18 29 -33 41 -15 11 -32 29 -38 40 -5 11 -25 27 -44 37 -20 9 -44
34 -57 56 -12 22 -32 45 -46 52 -29 15 -61 78 -54 104 3 11 -3 26 -14 36 -11
9 -24 36 -30 58 -6 23 -17 48 -25 57 -32 36 -38 109 -9 109 21 0 46 35 34 47
-15 15 -2 33 24 33 12 0 29 5 37 10 13 9 58 5 69 -6z m-1439 -69 c0 -7 7 -18
15 -25 22 -18 18 -44 -10 -78 -14 -17 -25 -37 -25 -45 0 -22 -21 -32 -31 -16
-15 24 -10 69 13 99 17 24 19 34 11 52 -14 31 -6 53 13 37 8 -6 14 -17 14 -24z
m508 17 c2 -7 -8 -16 -22 -22 -34 -13 -37 -65 -4 -73 22 -6 88 16 88 30 0 5
-11 25 -25 45 l-25 37 36 -3 c27 -3 41 -10 50 -27 l12 -24 11 28 c14 36 27 34
40 -4 17 -49 13 -73 -14 -99 -22 -20 -31 -22 -86 -17 -33 3 -74 1 -91 -5 -48
-17 -100 4 -121 47 -16 33 -16 39 -2 65 18 34 35 39 35 10 0 -11 4 -20 9 -20
5 0 11 9 14 20 3 11 11 20 17 20 8 0 10 -8 7 -22 -6 -20 -4 -20 21 5 27 28 43
30 50 9z m6 -41 c8 -12 -3 -41 -15 -41 -5 0 -9 11 -9 25 0 25 14 34 24 16z
m1143 -7 c3 -9 -5 -26 -20 -42 -40 -42 -51 -80 -31 -110 l17 -26 18 22 c22 28
34 28 53 0 14 -19 13 -24 -2 -50 -17 -29 -17 -30 13 -54 17 -13 36 -24 43 -24
6 0 12 -4 12 -9 0 -34 -95 0 -124 44 -18 28 -18 28 3 45 22 16 22 16 -13 12
-27 -3 -40 1 -60 22 -14 14 -26 36 -26 49 0 42 29 97 63 117 39 24 46 25 54 4z
m-627 -94 c0 -34 -6 -36 -37 -15 -18 13 -22 25 -21 62 l1 47 28 -32 c18 -20
29 -43 29 -62z m-1668 33 c30 -29 37 -63 13 -63 -7 0 -19 8 -24 18 -15 26 -12
1 3 -27 8 -14 31 -34 52 -46 34 -19 39 -27 42 -63 3 -38 0 -44 -30 -62 -18
-11 -43 -19 -55 -17 -13 2 -23 3 -23 2 0 -1 18 -14 40 -29 47 -31 53 -66 18
-103 -25 -27 -47 -29 -91 -7 -29 14 -27 11 16 -28 26 -25 47 -51 47 -58 0 -23
-42 -60 -68 -60 -24 0 -24 -1 -9 -18 40 -44 7 -100 -50 -86 l-28 7 31 -26 c35
-30 47 -69 30 -93 -14 -19 -87 -16 -94 4 -3 9 5 12 24 10 38 -4 41 19 10 63
-14 18 -32 46 -41 62 -14 25 -14 28 1 34 11 4 23 -1 35 -15 20 -25 30 -27 47
-10 9 9 0 24 -38 64 -28 29 -50 59 -50 68 0 23 11 46 23 46 20 0 57 -43 57
-67 0 -28 11 -29 35 -3 17 19 17 21 -23 72 -22 29 -46 66 -52 82 -11 30 -5 86
10 86 10 0 76 -73 82 -90 4 -14 38 -7 38 8 0 5 -18 32 -40 62 -49 66 -57 88
-37 107 13 14 18 13 41 -3 14 -11 26 -25 26 -31 0 -7 11 -13 25 -13 39 0 31
33 -14 64 -53 37 -64 101 -29 169 12 23 17 22 50 -10z m780 -30 c4 -75 -16
-109 -55 -97 -26 8 -61 -24 -46 -43 16 -18 3 -29 -16 -13 -16 13 -20 76 -7 97
8 12 103 80 115 82 4 1 8 -11 9 -26z m768 -6 c22 -39 4 -82 -34 -82 -16 0 -31
6 -33 13 -3 6 3 12 12 12 13 0 16 6 11 26 -8 32 2 66 17 61 7 -2 19 -15 27
-30z m-1003 -9 c2 -37 -6 -66 -23 -82 -26 -26 -35 -19 -29 22 8 46 25 82 40
82 6 0 11 -10 12 -22z m453 -27 c0 -6 -12 -17 -27 -26 -16 -10 -47 -40 -70
-69 -33 -41 -40 -57 -36 -80 5 -26 4 -28 -18 -21 -64 19 -70 74 -16 134 21 23
37 48 37 56 0 12 14 15 65 15 36 0 65 -4 65 -9z m429 -38 c20 -21 51 -46 69
-55 53 -28 65 -98 16 -98 -17 0 -24 6 -24 20 0 15 -16 28 -57 48 -40 19 -62
37 -77 65 -18 32 -19 39 -6 47 26 17 42 11 79 -27z m251 15 c39 -27 58 -71 40
-93 -21 -25 -45 -17 -58 19 -7 18 -21 41 -32 51 -47 43 -7 61 50 23z m-560 -5
c-1 -51 -69 -143 -105 -143 -6 0 -20 -9 -31 -21 -15 -16 -16 -24 -6 -39 17
-27 15 -30 -11 -30 -52 0 -62 60 -23 138 34 66 73 100 121 105 22 2 43 4 48 5
4 1 7 -6 7 -15z m145 11 c9 -4 24 -23 35 -43 10 -20 34 -52 54 -70 37 -36 43
-61 26 -106 -7 -20 -16 -26 -33 -23 -18 2 -21 8 -19 34 3 28 -3 36 -47 67 -28
20 -58 49 -67 64 -10 15 -29 40 -43 56 l-25 27 51 0 c28 0 59 -3 68 -6z m363
-59 c38 -59 25 -105 -30 -105 -29 0 -35 9 -18 26 15 15 1 50 -26 64 -30 17
-30 24 -1 38 37 18 51 13 75 -23z m-451 -27 c9 -34 22 -52 46 -67 42 -26 74
-61 79 -86 2 -13 16 -24 38 -31 27 -9 36 -18 38 -39 4 -34 -23 -65 -58 -65
-35 0 -41 8 -27 32 10 16 8 22 -13 38 -14 10 -44 24 -68 31 -33 9 -50 22 -69
51 -30 44 -38 48 -29 13 9 -37 -7 -59 -74 -100 -58 -35 -76 -64 -50 -80 22
-14 8 -26 -27 -23 l-38 3 0 54 c0 54 1 55 40 76 31 16 40 26 39 45 -2 29 11
38 91 65 65 22 68 28 51 104 -13 53 15 34 31 -21z m-567 -9 c0 -9 -16 -29 -35
-43 -19 -15 -35 -36 -35 -47 0 -26 -18 -24 -25 4 -8 30 10 75 43 110 25 26 28
27 39 11 7 -10 13 -25 13 -35z m-110 -8 c0 -45 -32 -97 -52 -85 -14 9 -9 58 8
82 19 27 44 29 44 3z m254 -62 c5 -11 -3 -20 -28 -32 -47 -22 -71 -59 -56 -86
9 -18 8 -21 -9 -21 -29 0 -55 43 -46 77 3 16 32 53 63 84 l57 55 6 -30 c4 -17
9 -38 13 -47z m1009 -17 c8 -20 12 -42 10 -49 -10 -26 -83 -29 -83 -4 0 5 8
11 18 13 15 3 14 6 -5 23 -22 18 -30 54 -17 68 15 15 63 -16 77 -51z m-298 16
c4 -10 14 -22 24 -26 29 -12 93 -90 89 -109 -2 -10 -20 -27 -41 -38 -44 -24
-45 -28 -13 -43 13 -6 27 -20 31 -32 8 -25 -16 -66 -45 -75 -27 -9 -25 -21 4
-29 36 -9 51 -55 33 -99 -9 -19 -25 -38 -37 -42 -21 -7 -21 -7 4 -30 28 -25
33 -54 16 -86 -15 -27 -30 -24 -30 6 0 32 -41 75 -71 75 -19 0 -21 4 -15 31 3
19 0 41 -9 59 -8 16 -15 36 -15 45 0 25 24 17 38 -12 7 -16 22 -39 33 -53 21
-24 21 -24 36 -5 13 19 11 23 -31 62 -38 34 -46 48 -46 76 0 21 -7 41 -20 52
-23 21 -26 45 -6 45 15 0 76 -64 76 -80 0 -18 19 -10 25 11 8 25 -16 55 -51
63 -25 7 -28 16 -39 99 -8 60 10 63 45 6 25 -40 52 -48 58 -17 2 11 -11 25
-37 40 -42 24 -58 62 -45 112 7 28 30 25 39 -6z m205 -62 c12 -23 11 -31 -3
-61 -22 -47 -47 -46 -47 0 0 19 -3 35 -7 35 -5 0 -19 9 -33 19 l-24 19 24 20
c22 18 28 18 50 7 14 -7 32 -25 40 -39z m-1190 1 c0 -26 -6 -36 -30 -50 -41
-25 -36 15 8 66 20 23 22 22 22 -16z m1517 6 c13 -19 11 -24 -11 -48 -14 -15
-28 -36 -32 -47 -5 -18 19 -68 34 -68 4 0 18 25 31 55 25 59 35 66 51 36 17
-32 12 -70 -15 -109 -30 -44 -32 -85 -5 -112 28 -28 40 -25 40 10 0 17 9 48
20 70 11 22 20 51 20 65 0 30 11 32 35 5 28 -31 24 -84 -8 -118 -39 -41 -45
-91 -17 -136 16 -26 18 -36 8 -36 -26 0 -55 29 -66 68 -9 29 -20 43 -43 52
-34 15 -59 55 -59 99 0 23 -7 34 -29 45 -27 14 -51 58 -51 94 0 8 14 30 30 49
17 18 30 38 30 44 0 16 22 6 37 -18z m-1423 -30 c-1 -29 -7 -49 -17 -55 -9 -4
-21 -24 -27 -43 -16 -49 -33 -33 -28 26 5 45 46 119 66 119 4 0 7 -21 6 -47z
m309 21 c3 -16 -4 -29 -26 -44 -26 -20 -29 -26 -23 -62 6 -36 5 -39 -15 -36
-36 5 -63 50 -55 93 10 49 36 73 79 72 28 -1 36 -5 40 -23z m319 -79 c16 -14
38 -25 48 -25 11 0 20 -10 24 -25 4 -17 21 -33 52 -47 69 -34 70 -89 3 -124
-39 -20 -62 -5 -36 24 9 10 17 24 17 30 0 18 -51 52 -77 52 -33 0 -93 60 -93
92 0 21 16 48 28 48 2 0 17 -11 34 -25z m582 -7 c13 -30 12 -34 -6 -50 -26
-23 -38 -23 -38 0 0 11 -9 27 -20 37 -31 28 -25 45 15 45 30 0 37 -5 49 -32z
m-1312 -63 c-7 -16 -17 -23 -27 -19 -20 8 -19 54 2 84 l17 25 10 -33 c6 -22 5
-41 -2 -57z m256 24 c-3 -37 -8 -46 -32 -58 -26 -12 -28 -17 -23 -52 6 -43 -5
-49 -35 -22 -11 10 -18 30 -18 55 0 32 8 47 47 89 52 56 66 53 61 -12z m173
-55 c12 -47 0 -84 -28 -84 -41 0 -71 -61 -36 -74 12 -5 13 -10 5 -18 -9 -9
-18 -9 -36 0 -50 22 -46 110 7 166 18 19 41 47 52 62 18 26 20 27 23 9 1 -11
7 -39 13 -61z m223 38 c6 -43 32 -71 96 -105 25 -13 47 -32 49 -43 5 -25 30
-43 63 -44 31 0 53 -30 43 -59 -9 -29 -55 -71 -78 -71 -19 0 -19 1 -4 18 35
39 14 70 -78 117 -40 20 -67 43 -96 84 -29 39 -39 48 -35 31 4 -20 -2 -32 -35
-62 -36 -33 -41 -42 -37 -73 3 -31 1 -35 -18 -35 -35 0 -45 22 -42 94 2 62 3
65 28 68 21 3 25 9 28 40 3 34 7 38 42 48 22 6 42 15 45 20 12 20 23 9 29 -28z
m551 -2 c24 -26 27 -34 19 -57 -10 -29 -39 -51 -51 -39 -4 4 0 14 11 21 17 13
15 16 -30 37 -27 12 -51 24 -53 25 -2 2 4 12 14 23 26 28 57 25 90 -10z
m-1092 -37 c-4 -36 -13 -54 -33 -70 -15 -13 -31 -34 -34 -48 -12 -48 -29 -27
-24 30 4 48 10 61 43 95 22 22 43 40 47 40 4 0 5 -21 1 -47z m-293 12 c0 -9 9
-33 20 -55 25 -50 25 -72 -1 -96 -28 -25 -96 -25 -115 1 -18 24 -18 31 2 39
10 4 25 -1 36 -11 14 -13 23 -15 35 -7 26 16 25 28 -2 58 -19 20 -24 34 -19
49 11 35 44 51 44 22z m1487 -20 c29 -21 34 -60 11 -90 -25 -32 -37 -32 -31
-1 3 16 -2 31 -16 45 -44 44 -14 81 36 46z m-1325 -17 c11 -9 15 -23 11 -45
-3 -18 -9 -33 -13 -33 -14 0 -30 26 -36 58 -7 35 8 43 38 20z m1186 -79 c-6
-4 1 -17 16 -32 29 -29 32 -53 12 -79 -18 -24 -26 -22 -26 6 0 16 -14 36 -40
58 l-40 33 20 33 21 34 24 -24 c14 -13 19 -25 13 -29z m622 -3 c0 -17 -12 -54
-27 -83 -26 -49 -27 -55 -13 -80 18 -32 33 -31 42 3 4 15 16 36 27 48 12 12
24 36 27 54 7 36 19 41 34 13 18 -34 11 -60 -25 -100 -44 -48 -45 -70 -4 -78
30 -6 31 -7 14 -20 -26 -19 -52 -16 -68 7 -7 10 -26 24 -41 29 -52 20 -77 139
-36 176 10 9 24 33 31 52 9 28 13 32 25 22 8 -6 14 -25 14 -43z m-1537 -23 c5
-42 3 -53 -8 -53 -8 0 -22 -12 -32 -26 -16 -25 -16 -27 2 -40 13 -10 22 -11
29 -4 19 19 26 10 26 -34 0 -36 -6 -50 -30 -74 -28 -28 -41 -72 -22 -72 5 0
19 11 32 25 35 37 46 15 16 -30 -32 -47 -36 -96 -6 -88 24 6 26 -9 5 -27 -12
-10 -21 -10 -40 -2 -29 13 -39 45 -27 87 6 20 4 38 -5 55 -17 33 -16 49 5 91
18 35 18 35 -5 53 -13 9 -23 28 -23 41 0 26 19 75 30 75 3 0 14 18 24 41 10
22 19 39 21 37 1 -2 5 -27 8 -55z m-103 -8 c0 -7 -15 -32 -33 -56 -18 -24 -36
-52 -40 -61 -16 -44 -43 0 -32 52 4 16 20 42 36 57 16 16 29 34 29 42 0 11 5
10 20 -4 11 -10 20 -24 20 -30z m1146 -54 c5 -17 2 -28 -11 -38 -27 -19 -38
-16 -32 9 4 12 -2 41 -13 64 -10 23 -15 45 -12 49 9 9 61 -55 68 -84z m-1316
50 c22 -42 8 -131 -21 -131 -10 0 -20 96 -13 125 7 30 20 32 34 6z m706 -22
c16 -17 49 -41 74 -53 39 -19 45 -26 43 -50 -2 -24 4 -30 43 -47 56 -25 74
-58 50 -94 -11 -16 -26 -25 -43 -25 -21 0 -24 3 -15 12 21 21 13 55 -19 82
-17 14 -37 26 -44 26 -24 0 -86 62 -102 102 -15 39 -40 54 -28 18 11 -34 -3
-56 -50 -81 -50 -26 -62 -48 -45 -79 9 -17 8 -20 -8 -20 -28 0 -45 25 -46 68
-1 34 2 38 42 56 32 15 42 25 39 38 -3 12 7 28 31 47 21 17 40 30 43 31 3 0
18 -14 35 -31z m-260 4 c3 -10 12 -32 19 -50 16 -36 11 -42 -48 -72 -17 -9
-36 -26 -42 -38 -11 -27 -18 -28 -35 -8 -17 20 3 74 40 110 17 16 30 36 30 45
0 32 27 41 36 13z m-896 -3 c0 -6 14 -19 32 -30 27 -16 29 -20 15 -26 -15 -5
-11 -13 23 -50 22 -24 40 -50 40 -57 0 -20 -21 -43 -55 -60 -25 -13 -27 -17
-13 -22 16 -6 16 -10 3 -35 -22 -42 -95 -65 -95 -29 0 5 7 9 15 9 14 0 35 29
35 48 0 5 -13 15 -28 21 -29 12 -62 57 -62 85 0 23 8 20 51 -19 42 -38 56 -42
83 -22 21 16 13 40 -20 58 -52 27 -77 139 -32 139 4 0 8 -5 8 -10z m1634 -106
c21 -25 27 -40 22 -59 -8 -32 -20 -32 -34 0 -6 14 -17 25 -24 25 -7 0 -19 4
-27 9 -11 7 -10 13 5 35 11 14 21 25 24 25 3 0 18 -16 34 -35z m-1004 -30 c0
-8 -10 -33 -22 -55 -42 -73 -77 -26 -38 50 18 36 23 40 40 31 11 -6 20 -18 20
-26z m300 -6 c-11 -24 -20 -53 -20 -65 0 -13 -4 -23 -9 -23 -17 0 -71 -51 -71
-67 0 -18 33 -10 72 18 15 10 34 19 43 19 28 0 7 -61 -36 -105 -51 -54 -51
-69 1 -60 49 8 55 -10 9 -29 -38 -16 -65 -11 -84 17 -21 29 -19 41 10 75 31
38 32 45 0 30 -56 -25 -79 54 -26 91 16 12 32 34 36 49 3 17 23 41 47 60 23
18 43 32 44 32 2 0 -6 -19 -16 -42z m804 21 c33 -26 33 -59 2 -88 l-25 -23 1
42 c0 23 -5 47 -11 53 -13 13 -15 37 -2 37 4 0 20 -9 35 -21z m-1534 -9 c0 -6
18 -30 40 -54 54 -58 56 -100 5 -122 -29 -12 -35 -19 -35 -44 0 -23 -7 -33
-31 -45 -36 -19 -48 -13 -31 15 19 30 14 52 -14 75 -23 19 -25 24 -15 44 l12
22 36 -32 c34 -30 37 -30 50 -13 21 29 16 39 -38 88 -29 26 -50 48 -48 49 2 1
13 7 24 14 25 15 45 16 45 3z m304 -53 c22 -58 10 -83 -24 -52 -14 13 -20 31
-20 60 0 73 16 70 44 -8z m671 33 c10 -11 38 -33 62 -48 40 -24 44 -30 40 -58
-5 -27 -2 -32 28 -43 50 -18 59 -33 41 -75 -18 -43 -54 -56 -91 -32 -33 22
-42 20 -20 -4 9 -10 33 -24 51 -30 41 -14 42 -19 8 -59 -41 -49 -54 -39 -29
22 5 13 2 17 -13 17 -11 0 -28 3 -37 6 -20 8 -45 56 -45 87 0 23 -16 47 -32
47 -4 0 -8 -5 -8 -11 0 -7 -20 -34 -45 -60 -49 -52 -62 -89 -24 -69 11 7 23 9
27 6 11 -11 -33 -35 -65 -36 -26 0 -34 5 -38 23 -8 28 21 97 40 97 27 0 65 23
65 40 0 10 13 23 30 30 26 11 33 10 49 -4 9 -9 22 -16 29 -16 6 0 26 -18 45
-41 34 -40 36 -40 47 -19 15 29 -7 63 -60 90 -41 21 -49 37 -28 58 9 9 8 12
-5 12 -9 0 -17 6 -17 14 0 7 -6 19 -14 25 -11 9 -15 7 -19 -9 -3 -11 -16 -24
-29 -29 -42 -16 -61 -46 -54 -86 6 -32 5 -35 -18 -35 -25 0 -46 24 -46 53 0 8
13 29 29 46 16 17 28 37 27 45 0 8 19 26 44 40 56 30 53 30 75 6z m252 -12
c13 -12 23 -33 23 -49 0 -21 6 -28 28 -34 31 -8 72 -42 72 -62 0 -7 5 -13 10
-13 17 0 24 31 11 52 -7 11 -9 33 -5 54 7 38 27 41 32 6 2 -12 8 -22 13 -22
17 0 9 -67 -12 -94 -28 -36 -56 -34 -72 7 -8 17 -22 39 -32 47 -17 14 -18 13
-10 -5 4 -11 10 -32 12 -46 4 -23 0 -28 -34 -42 -42 -17 -65 -10 -84 24 -16
31 -3 35 31 11 38 -28 47 -12 15 27 -19 22 -24 36 -19 55 4 17 -1 37 -15 61
-12 20 -21 38 -21 41 0 12 37 1 57 -18z m497 -49 c4 -22 0 -38 -16 -60 -17
-23 -20 -34 -12 -46 21 -34 40 -37 73 -14 28 21 32 21 38 5 4 -11 -1 -23 -13
-33 -29 -23 -36 -48 -18 -66 20 -19 38 -19 58 1 9 9 24 13 35 9 11 -3 22 -1
26 5 11 17 25 11 25 -11 0 -11 -9 -32 -20 -46 -28 -35 -25 -52 10 -64 35 -13
30 -29 -9 -29 -47 0 -65 21 -59 68 6 40 5 40 -17 30 -13 -6 -35 -8 -49 -4 -29
7 -59 56 -50 80 4 11 0 16 -13 16 -34 0 -56 35 -50 77 6 46 34 113 46 113 5 0
11 -14 15 -31z m-1560 -31 c9 -12 16 -31 16 -41 0 -28 -54 -77 -84 -77 -33 0
-33 14 0 29 25 11 26 15 22 61 -4 43 -3 50 13 50 10 0 25 -10 33 -22z m1346
-31 c0 -22 -40 -77 -56 -77 -11 0 -14 5 -10 16 3 9 9 28 12 42 11 52 12 54 34
42 11 -6 20 -16 20 -23z m-1085 -29 c-9 -62 -11 -66 -33 -51 -32 21 -12 103
25 103 12 0 14 -10 8 -52z m-187 30 c7 -7 12 -25 12 -40 0 -38 24 -94 46 -106
15 -8 16 -15 6 -55 -19 -74 -14 -123 29 -302 41 -164 42 -171 30 -243 -8 -53
-18 -83 -36 -104 -13 -16 -30 -48 -36 -71 -6 -23 -21 -60 -32 -82 l-21 -40 -6
35 -6 35 -7 -45 c-11 -64 -37 -172 -47 -195 -5 -11 -16 -38 -25 -59 -8 -22
-31 -59 -51 -83 -25 -30 -31 -43 -20 -43 8 0 20 9 26 20 15 29 43 27 34 -2
-12 -40 -35 -58 -74 -58 -21 0 -48 -8 -61 -18 -35 -27 -118 -66 -125 -60 -3 4
-1 15 5 26 6 12 11 31 10 44 0 18 -3 15 -12 -12 -15 -44 -31 -45 -35 -2 -4 41
12 62 46 62 24 0 25 1 8 13 -14 10 -17 23 -14 52 l4 38 -18 -23 c-11 -13 -16
-31 -12 -42 4 -12 -5 -30 -25 -54 -23 -26 -30 -41 -25 -59 4 -16 -1 -30 -15
-44 -26 -26 -56 -28 -46 -3 11 29 18 72 11 72 -4 0 -11 -12 -17 -27 -14 -37
-30 -16 -22 31 6 35 8 38 34 32 29 -5 29 -5 29 47 0 98 41 119 138 72 67 -32
88 -31 121 4 27 28 69 136 58 147 -3 3 -8 -8 -11 -24 -8 -34 -61 -100 -71 -90
-4 4 -2 27 4 51 7 24 11 59 8 78 -3 31 -4 29 -6 -11 -2 -50 -30 -117 -46 -110
-5 3 -9 30 -8 60 1 48 0 52 -10 30 -10 -24 -11 -25 -14 -3 -6 33 33 236 63
333 35 112 45 329 20 459 -26 134 -24 143 30 165 25 10 48 26 51 35 4 9 28 37
55 62 40 38 48 51 48 82 0 39 8 45 28 25z m106 -51 c5 -20 6 -40 2 -44 -12
-12 -46 36 -46 64 0 40 33 25 44 -20z m1290 -25 c10 -37 2 -51 -22 -36 -19 12
-27 38 -18 60 9 24 30 11 40 -24z m-1729 -32 c28 -55 14 -90 -37 -90 -18 0
-28 5 -28 15 0 8 6 15 14 15 24 0 29 19 12 45 -21 32 -20 45 4 45 11 0 26 -12
35 -30z m155 15 c21 -25 3 -65 -36 -81 -47 -20 -53 -12 -20 26 14 17 26 40 26
51 0 23 13 25 30 4z m1313 -42 c51 -57 48 -231 -9 -463 -44 -181 -47 -242 -16
-323 25 -67 54 -219 46 -242 -4 -8 -10 -15 -15 -15 -5 0 -9 -14 -9 -31 0 -25
6 -32 33 -44 51 -21 59 -37 51 -92 -7 -47 -6 -48 13 -31 19 17 20 17 41 -5 27
-29 31 -97 6 -97 -11 0 -14 6 -9 23 12 37 11 42 -10 42 -17 0 -19 -6 -17 -32
2 -18 1 -33 -1 -33 -20 0 -37 16 -38 34 0 20 -1 20 -10 -2 -13 -33 -29 -18
-22 21 3 22 -3 52 -20 93 -21 49 -31 61 -58 70 -31 11 -34 16 -37 55 -1 24
-14 87 -28 139 -35 126 -34 124 -40 117 -4 -3 1 -50 11 -103 12 -67 16 -122
12 -178 -3 -45 -2 -90 2 -101 9 -21 8 -23 31 38 11 32 45 35 64 5 8 -13 5 -23
-14 -43 l-25 -27 25 7 c38 9 62 -22 58 -76 -4 -62 -28 -64 -29 -2 -1 42 -2 45
-9 18 l-8 -30 -1 30 c-1 22 -4 26 -13 17 -9 -9 -9 -18 0 -37 17 -37 15 -47
-10 -43 -15 2 -27 14 -33 33 -13 39 -37 75 -49 75 -6 0 -5 -5 2 -12 15 -15 16
-53 2 -79 -18 -32 -30 -21 -30 26 0 46 -7 54 -28 33 -8 -8 -8 -19 3 -45 13
-30 12 -35 0 -40 -44 -16 -62 55 -30 117 14 27 14 30 0 30 -12 0 -15 6 -10 23
12 37 25 44 42 22 15 -19 15 -19 8 10 -4 17 -9 77 -12 136 -4 81 -1 118 13
165 9 32 18 100 20 149 l2 90 -9 -65 c-4 -36 -17 -108 -28 -160 -11 -52 -23
-129 -27 -170 -3 -41 -15 -97 -25 -123 -11 -26 -19 -57 -19 -68 0 -12 -4 -17
-11 -13 -15 9 -7 91 13 130 9 18 12 38 7 50 -15 38 -8 131 17 219 69 246 78
406 38 678 -7 46 -6 47 20 47 39 0 65 16 136 86 19 18 24 18 43 -3z m328 -21
c7 -37 -2 -48 -30 -33 -38 21 -36 75 2 69 15 -2 23 -13 28 -36z m-476 12 c26
-17 25 -34 -2 -34 -15 0 -42 27 -43 43 0 12 19 8 45 -9z m243 -43 c16 -53 15
-265 -3 -389 -19 -131 -52 -274 -70 -298 -13 -18 -14 -17 -20 9 -10 37 0 145
30 337 14 85 28 206 31 268 4 61 10 112 14 112 4 0 12 -17 18 -39z m-1078
-133 c0 -90 3 -180 6 -200 11 -67 -13 -41 -32 35 -34 132 -24 327 17 327 5 0
9 -73 9 -162z m570 142 c8 -15 7 -32 -5 -65 -8 -25 -15 -53 -15 -62 0 -14 -2
-14 -20 2 -22 20 -26 65 -9 114 13 35 33 40 49 11z m-353 -35 c63 -61 74 -122
51 -280 -16 -110 1 -245 43 -350 16 -42 29 -88 26 -103 l-3 -27 -17 35 c-20
43 -21 33 -2 -45 24 -97 17 -189 -13 -171 -5 3 -13 27 -17 53 l-8 48 -13 -55
c-7 -30 -11 -56 -8 -59 2 -2 4 1 4 7 0 7 5 12 10 12 6 0 10 -9 10 -19 0 -10 7
-21 15 -25 20 -7 19 -31 -2 -63 -17 -26 -17 -26 6 -14 12 7 29 10 38 7 12 -5
11 -10 -6 -32 -27 -34 -27 -53 -1 -29 10 9 26 15 35 12 18 -8 20 -33 3 -41 -9
-3 -8 -8 5 -16 20 -13 47 -68 47 -95 0 -11 -7 -15 -22 -13 -19 2 -22 8 -20 36
3 23 -1 34 -13 38 -25 10 -42 -12 -27 -36 16 -26 15 -40 -2 -40 -31 0 -31 95
0 107 8 3 14 9 14 14 0 21 -40 -13 -46 -39 -3 -15 -7 -37 -10 -49 -2 -13 -11
-23 -19 -23 -12 0 -13 9 -9 44 4 27 2 46 -5 50 -6 4 -11 23 -11 42 0 19 -4 34
-10 34 -5 0 -10 -7 -10 -15 0 -8 -9 -19 -20 -25 -26 -14 -25 -23 3 -35 25 -11
36 -67 17 -91 -19 -22 -31 -6 -24 32 6 31 4 34 -19 34 -23 0 -26 -5 -29 -37
-2 -26 -8 -38 -18 -38 -20 0 -17 91 5 168 13 44 21 56 41 61 15 4 32 2 40 -5
8 -7 14 -7 14 -1 0 5 3 24 7 42 4 23 3 31 -5 26 -7 -4 -14 13 -21 46 -5 29
-12 62 -14 73 -3 11 -5 -17 -6 -63 -1 -78 -2 -84 -31 -110 -32 -29 -53 -88
-66 -189 -6 -53 -7 -54 -38 -51 -29 3 -31 5 -28 39 4 40 -18 58 -39 33 -9 -11
-9 -21 0 -40 6 -14 11 -27 11 -29 0 -10 -47 -4 -58 7 -9 9 -12 8 -12 -6 0 -10
-6 -16 -12 -13 -8 2 -13 21 -13 48 0 37 -3 44 -20 44 -17 0 -20 -6 -19 -47 0
-57 -22 -67 -31 -14 -10 51 2 75 46 93 28 11 41 22 45 42 9 47 29 74 58 82 17
5 32 6 34 4 8 -8 -48 -116 -63 -121 -10 -4 -15 -19 -14 -48 1 -27 3 -33 6 -16
7 36 32 60 64 60 23 0 30 -6 36 -27 l7 -28 7 25 c14 48 11 61 -13 58 -17 -2
-24 3 -26 19 -5 33 15 61 45 65 35 4 61 49 68 114 2 27 2 40 -1 29 -22 -88
-48 -125 -88 -125 -20 0 -20 11 -1 58 13 29 18 34 26 22 6 -10 8 71 6 230 -3
200 -7 265 -25 355 -25 129 -37 284 -28 347 l7 44 67 0 c65 -1 69 -3 109 -41z
m196 -80 c-4 -16 -6 -102 -4 -190 2 -119 -1 -184 -14 -255 -32 -177 -54 -171
-61 16 -3 71 -14 172 -24 224 -14 68 -17 118 -13 176 5 73 8 82 31 97 25 14
28 14 59 -11 28 -23 32 -31 26 -57z m997 46 c0 -29 -18 -36 -41 -15 -27 24
-24 34 11 34 23 0 30 -5 30 -19z m-1804 -96 c15 -63 16 -90 7 -192 -6 -65 -8
-136 -6 -158 8 -65 -14 -29 -37 60 -27 104 -40 356 -20 381 13 15 15 14 26 -1
7 -10 21 -50 30 -90z m1019 54 c8 -24 -10 -48 -25 -33 -10 10 -2 54 10 54 5 0
12 -9 15 -21z m-130 2 c3 -5 1 -12 -4 -15 -5 -3 -11 1 -15 9 -6 16 9 21 19 6z
m255 -34 c0 -24 9 -70 20 -102 25 -74 25 -121 -1 -243 -22 -103 -34 -127 -49
-102 -22 34 -48 194 -54 321 l-6 135 32 16 c53 25 58 22 58 -25z m-180 -70 c8
-3 26 -7 40 -9 l25 -3 6 -170 c5 -162 22 -281 53 -368 9 -26 10 -55 5 -95 -5
-31 -6 -65 -3 -75 3 -10 -7 -57 -22 -103 l-27 -85 21 -52 c29 -70 29 -105 0
-112 -13 -3 -65 -5 -117 -3 l-95 3 -9 30 c-23 78 -27 111 -37 262 -9 147 -8
172 10 265 16 81 20 144 20 300 0 108 2 202 5 210 6 14 96 18 125 5z m-536
-352 c3 -8 3 -50 -1 -93 -4 -55 -1 -99 12 -155 29 -131 3 -217 -66 -217 -34 0
-47 -16 -62 -77 -9 -36 -19 -51 -40 -61 -37 -18 -59 -64 -51 -107 5 -28 3 -35
-10 -35 -13 0 -16 13 -16 73 0 39 -3 82 -6 95 -5 18 -2 22 19 22 14 0 27 -5
29 -12 2 -6 10 -8 16 -4 14 8 52 84 52 103 0 7 11 41 24 75 28 74 46 167 55
293 6 88 14 115 31 115 4 0 10 -7 14 -15z m1070 -205 c20 -79 34 -208 27 -267
-2 -19 -46 -16 -64 5 -9 10 -19 53 -26 107 -9 72 -8 100 4 145 7 30 17 68 20
84 3 15 8 27 10 24 2 -2 15 -46 29 -98z m-1164 -14 c0 -2 -9 -23 -20 -47 -11
-24 -20 -61 -20 -81 0 -44 -9 -70 -21 -62 -13 8 -11 111 2 137 15 29 40 57 51
57 4 0 8 -2 8 -4z m437 -33 c12 -46 9 -186 -3 -190 -17 -6 -24 32 -24 130 0
86 12 114 27 60z m811 -55 c50 -135 52 -159 14 -128 -18 15 -26 37 -36 99 -7
45 -9 81 -5 81 4 0 16 -24 27 -52z m-1338 -121 c0 -8 -9 -22 -20 -32 -20 -18
-20 -17 -20 8 0 23 10 34 33 36 4 1 7 -5 7 -12z m30 -55 c0 -34 -14 -57 -29
-48 -14 9 -14 59 1 74 16 16 28 5 28 -26z m1167 3 c23 -36 13 -46 -19 -21 -18
13 -25 56 -10 56 4 -1 17 -16 29 -35z m174 -4 c30 -30 38 -72 19 -101 -7 -11
-10 -4 -10 26 0 47 -14 64 -52 64 -41 0 -36 35 5 39 5 1 22 -12 38 -28z m-826
-37 c17 -40 20 -84 6 -84 -5 0 -11 14 -15 30 -3 17 -9 44 -12 60 -9 41 2 38
21 -6z m-1014 5 c-2 -8 -9 -35 -15 -61 -6 -25 -21 -57 -34 -70 -17 -19 -22
-36 -22 -75 0 -67 -7 -83 -36 -83 -17 0 -31 10 -44 33 -27 43 -25 55 4 28 26
-25 30 -22 41 27 6 30 5 32 -20 32 -23 0 -26 2 -15 15 7 8 20 15 29 15 16 0
51 69 51 103 0 22 37 60 53 54 7 -3 10 -11 8 -18z m1833 -5 c3 -8 3 -28 -1
-42 l-6 -27 -13 35 c-7 19 -13 38 -13 43 -2 14 27 7 33 -9z m-427 0 c-3 -3
-12 -4 -19 -1 -8 3 -5 6 6 6 11 1 17 -2 13 -5z m957 -10 c9 -8 16 -28 16 -44
0 -46 10 -60 61 -86 46 -23 49 -27 49 -64 0 -51 -20 -63 -21 -13 l-2 38 -6
-39 c-6 -42 -28 -63 -55 -53 -13 5 -14 11 -6 32 11 29 3 51 -36 97 -12 15 -30
48 -39 72 -11 28 -26 48 -39 52 -21 7 -21 7 -1 15 33 13 63 10 79 -7z m-584
-34 c6 -22 15 -40 20 -40 6 0 10 -7 10 -15 0 -8 9 -15 19 -15 20 0 24 -8 36
-67 4 -21 3 -33 -4 -33 -14 0 -31 33 -31 61 0 18 -2 19 -15 9 -14 -12 -14 -15
0 -36 20 -31 19 -34 -9 -34 -21 0 -25 6 -31 47 -4 26 -20 73 -36 105 l-29 58
29 0 c27 0 31 -5 41 -40z m134 -72 c22 -35 30 -76 16 -93 -19 -23 -37 -7 -43
38 -2 23 -8 50 -12 60 -11 26 21 22 39 -5z m-1394 -43 c0 -14 -4 -25 -10 -25
-11 0 -14 33 -3 43 11 11 13 8 13 -18z m120 3 c0 -16 -3 -19 -11 -11 -6 6 -8
16 -5 22 11 17 16 13 16 -11z m170 -3 c0 -8 -4 -15 -10 -15 -5 0 -10 7 -10 15
0 8 5 15 10 15 6 0 10 -7 10 -15z m178 -4 c3 -8 -1 -12 -9 -9 -7 2 -15 10 -17
17 -3 8 1 12 9 9 7 -2 15 -10 17 -17z m742 -1 c0 -5 -2 -10 -4 -10 -3 0 -8 5
-11 10 -3 6 -1 10 4 10 6 0 11 -4 11 -10z m-871 -69 c10 -7 9 -11 -7 -23 -11
-7 -24 -26 -28 -42 -4 -18 -11 -25 -21 -22 -8 3 -19 6 -24 6 -29 0 5 68 42 83
20 8 22 8 38 -2z m103 0 c11 6 24 8 31 6 7 -2 -3 -11 -20 -21 -22 -11 -33 -13
-33 -5 0 6 -14 -3 -32 -20 -38 -37 -61 -40 -56 -8 4 26 67 62 82 47 6 -6 16
-5 28 1z m350 -2 c126 -26 262 -117 330 -221 137 -208 106 -455 -77 -627 -103
-96 -224 -141 -376 -141 -103 0 -187 23 -274 75 -182 109 -269 284 -244 490
17 140 127 298 257 368 106 58 264 81 384 56z m-749 -6 c4 -3 -1 -16 -12 -27
-10 -12 -21 -30 -23 -41 -2 -15 -12 -21 -41 -23 -33 -3 -37 -1 -37 20 0 32 25
66 53 71 37 7 53 7 60 0z m205 -17 c-14 -13 -28 -32 -30 -42 -4 -26 -56 -32
-65 -8 -3 9 -1 25 5 35 18 28 15 31 -13 13 -15 -10 -25 -26 -25 -41 0 -22 -3
-24 -42 -21 -51 4 -56 17 -23 56 26 31 27 31 123 31 l97 0 -27 -23z m727 -6
c16 -16 25 -30 21 -30 -15 0 -86 41 -86 50 0 20 37 9 65 -20z m59 20 c14 -5
32 -22 40 -39 14 -25 14 -30 1 -41 -19 -16 -45 -6 -45 16 0 10 -15 30 -32 45
-30 26 -31 28 -11 29 12 0 33 -4 47 -10z m122 -25 c30 -40 26 -65 -11 -65 -17
0 -28 7 -34 23 -5 13 -16 29 -25 36 -26 22 -19 41 13 41 22 0 37 -9 57 -35z
m97 -6 c32 -34 31 -52 -2 -57 -16 -3 -33 9 -60 40 -22 24 -37 47 -34 52 10 16
69 -5 96 -35z m-1419 19 c-4 -7 -16 -19 -25 -26 -10 -7 -19 -22 -21 -34 -3
-23 -28 -34 -54 -24 -13 5 -13 9 1 35 8 16 25 37 37 45 28 20 73 22 62 4z m87
-17 c-17 -16 -31 -36 -31 -45 0 -12 -10 -16 -35 -16 -29 0 -35 4 -35 20 0 34
47 70 93 70 l39 0 -31 -29z m1428 1 c13 -10 31 -28 39 -40 14 -21 13 -22 -19
-22 -39 0 -42 2 -89 54 l-35 39 40 -6 c22 -4 50 -15 64 -25z m100 2 c38 -32
41 -64 7 -64 -13 0 -26 7 -30 15 -3 9 -21 25 -41 36 -44 26 -45 39 -1 39 22 0
45 -9 65 -26z m97 5 c8 -6 14 -27 14 -45 0 -30 -3 -34 -25 -34 -18 0 -26 7
-31 24 -3 14 -14 32 -25 42 -10 9 -19 21 -19 27 0 12 67 2 86 -14z m-1816 1
c0 -5 -9 -14 -19 -20 -11 -5 -21 -20 -23 -32 -4 -31 -58 -40 -58 -10 0 33 38
72 71 72 16 0 29 -4 29 -10z m1911 -22 c37 -41 37 -58 0 -58 -23 0 -34 8 -52
38 -33 53 -33 52 -4 52 17 0 37 -11 56 -32z m-2071 12 c0 -5 -6 -13 -14 -17
-8 -4 -15 -17 -17 -28 -3 -12 -14 -21 -27 -23 -29 -4 -30 30 -2 58 21 21 60
27 60 10z m64 1 c3 -5 -1 -11 -8 -14 -8 -3 -16 -18 -18 -34 -4 -35 -41 -40
-46 -6 -5 37 55 82 72 54z m2094 -7 c24 -16 30 -60 10 -67 -18 -6 -38 3 -38
16 0 6 -12 24 -27 39 l-27 28 30 0 c16 0 40 -7 52 -16z m101 -19 c12 -12 13
-19 5 -33 -15 -23 -44 -28 -44 -7 0 9 -12 28 -27 42 l-28 26 39 -6 c22 -4 47
-13 55 -22z m67 -6 c18 -20 13 -49 -8 -49 -8 0 -20 15 -28 33 -7 17 -15 35
-17 39 -9 14 37 -5 53 -23z m-2422 6 c-4 -8 -10 -15 -15 -15 -5 0 -9 -12 -9
-26 0 -19 -5 -25 -17 -22 -25 5 -28 36 -7 59 21 23 56 26 48 4z m-82 -18 c-12
-13 -22 -33 -22 -45 0 -24 -24 -21 -34 5 -14 36 7 59 58 62 18 1 18 0 -2 -22z
m2576 0 c2 -10 -2 -24 -8 -32 -15 -18 -43 -8 -35 13 3 8 0 21 -7 29 -10 12 -7
14 17 11 19 -2 31 -10 33 -21z m-1690 -41 c-10 -7 -18 -18 -18 -23 0 -5 -11
-20 -24 -32 l-24 -23 -4 27 c-4 39 -35 57 -50 30 -6 -11 -29 -38 -51 -60 -76
-76 -87 -99 -87 -186 0 -43 -4 -80 -9 -83 -5 -4 -42 1 -83 9 -44 10 -93 13
-123 10 -58 -7 -53 -14 -100 135 -15 47 -31 96 -36 109 -7 17 -6 26 3 32 7 4
9 11 5 16 -5 4 -12 2 -16 -5 -6 -9 -12 -7 -26 8 -10 11 -16 22 -13 25 2 2 137
8 299 13 162 5 312 9 334 10 35 1 38 0 23 -12z m-713 -29 c-1 -28 -1 -28 15
-7 17 23 30 18 30 -11 0 -12 5 -16 14 -13 20 8 29 -12 16 -36 -8 -16 -8 -18 4
-14 24 9 27 -12 4 -42 -12 -16 -15 -23 -8 -16 20 18 43 15 36 -4 -3 -8 1 -22
10 -31 13 -14 13 -17 -1 -33 -16 -17 -16 -18 4 -13 24 6 27 -7 9 -40 -10 -19
-9 -21 4 -9 10 8 19 9 22 3 9 -14 -3 -39 -22 -45 -10 -3 -4 -4 11 -2 16 2 34
-2 41 -9 10 -10 22 -11 53 -2 31 8 54 7 106 -6 84 -21 100 -21 121 2 13 15 15
30 10 88 -5 50 -3 77 7 95 13 25 125 148 135 148 2 0 4 -13 4 -29 0 -21 -9
-37 -32 -56 l-33 -26 29 11 c26 9 27 9 16 -5 -7 -8 -9 -15 -4 -15 5 -1 -7 -15
-26 -32 -21 -18 -26 -26 -12 -19 28 15 30 -3 5 -32 -10 -11 -12 -17 -5 -13 18
10 15 -15 -5 -43 -10 -16 -12 -21 -3 -16 10 6 12 4 7 -9 -4 -10 -7 -31 -7 -47
0 -25 -6 -33 -35 -45 -19 -7 -50 -14 -70 -14 -19 0 -35 -5 -35 -11 0 -6 -9 -8
-22 -3 -22 6 -22 6 -5 -13 9 -11 17 -35 17 -56 0 -24 4 -36 12 -35 7 2 14 -7
16 -19 4 -25 42 -55 97 -79 30 -12 35 -18 29 -36 -3 -12 -2 -18 3 -15 17 11
75 -80 71 -111 -3 -24 -7 -27 -45 -30 -33 -2 -43 0 -43 12 0 8 7 19 15 23 12
7 11 14 -10 45 -23 34 -103 98 -122 98 -4 0 15 -15 43 -34 53 -36 64 -51 64
-91 0 -33 -26 -55 -66 -55 -39 0 -43 9 -14 28 20 12 26 45 14 77 -4 9 -27 27
-53 40 -75 39 -82 47 -36 41 55 -7 24 9 -45 23 -30 7 -73 23 -96 36 -35 21
-43 22 -48 10 -9 -24 -58 -39 -71 -22 -5 7 -30 24 -53 37 -24 14 -50 36 -58
50 -13 24 -13 23 -8 -18 6 -39 4 -45 -30 -77 -28 -26 -46 -35 -72 -35 -39 0
-56 -26 -47 -73 7 -37 18 -34 18 6 0 29 3 32 26 29 20 -2 28 3 32 19 4 16 11
20 25 17 14 -4 23 2 31 19 11 24 15 25 59 17 26 -4 78 -8 115 -8 53 -1 71 -5
81 -18 7 -10 25 -18 40 -18 32 0 86 -26 86 -41 0 -6 9 -8 20 -4 13 4 28 -2 45
-19 28 -28 32 -51 11 -63 -8 -4 -15 -17 -18 -28 -3 -19 -12 -20 -226 -23
l-223 -2 -24 24 c-16 16 -25 36 -25 56 0 16 -4 30 -10 30 -5 0 -10 -13 -10
-30 0 -16 4 -30 9 -30 5 0 11 -9 14 -20 6 -24 0 -25 -63 -4 -59 19 -75 49 -68
126 6 57 36 91 75 85 29 -5 35 13 10 33 -16 13 -18 23 -12 64 5 28 16 55 26
64 22 19 25 34 5 26 -21 -8 -32 58 -17 106 13 43 14 139 2 158 -4 7 -6 -12 -3
-43 3 -36 1 -55 -7 -55 -6 0 -10 -10 -8 -22 3 -33 -27 -34 -48 -2 -14 22 -15
31 -5 53 7 14 14 49 16 76 7 98 44 136 129 132 37 -2 40 -4 40 -30z m1718 -19
c-2 -29 -8 -62 -13 -73 -5 -11 -10 -39 -12 -62 -3 -40 -2 -43 21 -43 19 0 22
3 13 12 -18 18 -15 85 4 96 13 7 14 13 6 29 -20 36 5 93 40 93 17 0 18 -3 9
-14 -7 -8 -11 -27 -9 -43 3 -25 7 -28 43 -28 l40 0 -1 43 c-1 46 -1 46 27 32
13 -8 19 -21 19 -46 0 -21 4 -33 10 -29 16 10 24 -26 11 -46 -6 -11 -7 -19 -1
-19 20 0 29 36 16 61 -7 14 -16 37 -19 51 l-7 25 92 -5 c67 -4 106 -11 144
-29 79 -36 81 -40 86 -186 4 -125 3 -128 -17 -123 -11 3 -36 6 -56 6 -19 0
-44 7 -55 15 -18 13 -18 16 -3 43 15 27 15 30 -4 57 -26 35 -77 57 -116 49
-26 -5 -31 -3 -32 12 0 11 -7 0 -16 -24 -18 -50 -63 -84 -103 -76 -24 4 -25 4
-2 -6 19 -8 21 -13 12 -29 -5 -11 -15 -23 -20 -26 -6 -3 -10 -10 -10 -16 0 -5
16 9 36 31 20 22 42 40 48 40 7 0 30 16 52 35 47 43 77 52 110 35 32 -17 31
-52 -2 -95 -25 -33 -25 -34 -8 -62 10 -15 19 -29 19 -31 1 -1 15 4 30 12 32
17 107 12 140 -9 11 -7 31 -35 44 -64 22 -45 23 -55 12 -91 -6 -22 -20 -48
-30 -57 -10 -10 -22 -28 -25 -40 -4 -12 -20 -31 -35 -42 -19 -14 -33 -38 -46
-79 -16 -54 -21 -61 -49 -65 -17 -3 -35 -1 -40 4 -12 11 46 125 92 179 37 44
43 63 10 33 -13 -11 -33 -26 -46 -33 -14 -6 -21 -17 -18 -25 3 -8 1 -17 -4
-20 -6 -4 -10 -17 -10 -30 0 -12 -13 -37 -30 -55 -16 -18 -30 -36 -30 -40 0
-15 -41 -22 -55 -10 -19 16 -19 71 0 117 8 19 15 48 15 64 l0 29 53 -6 c57 -7
83 2 125 40 13 11 28 30 34 41 6 12 -4 6 -26 -15 -33 -31 -43 -35 -108 -38
l-71 -4 23 33 c27 37 39 134 21 165 -9 17 -10 15 -11 -11 0 -48 -19 -102 -45
-134 -26 -30 -32 -51 -15 -51 15 0 12 -57 -4 -89 -8 -15 -18 -52 -22 -82 -8
-61 -15 -69 -61 -69 -32 0 -46 21 -23 35 12 7 13 55 1 73 -6 10 -10 6 -14 -15
-4 -15 -16 -44 -28 -63 -32 -51 -36 -19 -5 42 14 27 26 56 26 64 0 22 17 16
39 -13 l20 -28 1 25 c0 14 -9 40 -21 59 -11 18 -18 40 -15 48 3 8 1 11 -4 8
-6 -3 -10 -17 -10 -31 0 -25 -4 -36 -33 -89 -9 -16 -26 -49 -37 -73 l-20 -43
-52 1 c-29 1 -122 -2 -205 -6 -84 -4 -153 -4 -153 -1 0 4 19 16 43 28 23 12
76 56 117 98 41 42 78 75 81 74 4 -1 7 8 7 20 0 12 11 49 26 83 50 118 45 251
-15 383 -23 50 -27 67 -17 74 9 6 8 7 -4 4 -11 -4 -25 5 -40 26 -45 60 -48 57
65 57 l104 0 -4 -52z m122 16 c0 -22 -5 -29 -20 -29 -23 0 -32 30 -14 51 18
22 34 11 34 -22z m621 -5 c3 -6 0 -15 -7 -20 -11 -7 -11 -9 3 -9 23 0 34 -20
17 -31 -12 -8 -11 -11 4 -20 12 -7 16 -17 12 -30 -4 -11 -2 -19 5 -19 7 0 9
-8 5 -19 -3 -11 0 -30 7 -42 11 -18 11 -22 0 -26 -10 -4 -10 -8 -1 -19 6 -7 9
-24 6 -36 -4 -13 -2 -30 3 -38 5 -8 6 -18 3 -24 -4 -5 -7 -26 -7 -45 -1 -20
-5 -41 -9 -48 -4 -6 -1 -13 5 -16 10 -3 10 -8 2 -18 -5 -8 -9 -25 -8 -39 1
-14 -2 -30 -8 -37 -5 -7 -5 -13 0 -17 12 -7 -19 -138 -33 -143 -6 -2 -10 87
-11 230 0 158 -6 269 -17 347 -13 89 -14 116 -4 122 17 11 25 10 33 -3z
m-2695 -28 c44 -27 46 -31 47 -78 1 -70 -15 -89 -23 -27 -9 70 -10 71 -54 93
-22 12 -42 25 -46 31 -12 20 32 9 76 -19z m2576 -3 c4 -7 13 -53 20 -103 l12
-90 -4 87 c-4 88 0 103 24 89 45 -28 51 -655 6 -664 -6 -1 -12 36 -15 88 l-4
90 -6 -95 c-4 -75 -8 -95 -20 -95 -12 0 -16 20 -21 95 -5 86 -5 89 -7 28 -2
-64 -16 -97 -25 -61 -3 10 -5 -1 -6 -25 -1 -50 -15 -82 -36 -82 -17 0 -20 -16
-5 -25 12 -8 13 -42 1 -49 -5 -3 -16 5 -25 19 -14 22 -15 31 -5 68 7 23 13 59
13 81 1 45 29 72 47 46 8 -11 9 -9 5 12 -4 16 2 52 15 89 l22 62 -37 67 c-36
67 -36 68 -36 188 0 78 4 123 11 128 17 10 29 -16 30 -71 0 -27 5 -59 10 -70
6 -13 7 19 3 93 -5 96 -4 112 10 112 8 0 18 -6 23 -12z m-2680 -30 c9 -18 23
-58 30 -88 l13 -55 -6 72 c-3 43 -1 74 5 77 12 8 31 -25 32 -56 1 -22 2 -20
15 22 9 26 22 -9 30 -77 3 -35 11 -61 17 -60 5 1 17 -11 26 -28 9 -16 19 -31
24 -33 4 -2 7 -32 7 -68 0 -60 -2 -64 -25 -70 -30 -7 -75 -58 -75 -85 0 -16 7
-19 40 -19 46 0 49 -8 15 -40 -22 -20 -25 -32 -27 -109 -3 -72 -6 -86 -20 -89
-15 -3 -18 4 -19 35 -1 36 -2 35 -11 -14 -7 -37 -14 -53 -25 -53 -12 0 -14 8
-9 38 3 20 8 89 10 152 4 95 3 103 -3 45 -11 -90 -29 -155 -43 -155 -6 0 -8
11 -4 28 3 15 9 62 13 105 4 61 3 81 -7 87 -11 7 -11 11 -1 24 8 9 9 16 4 16
-6 0 -10 18 -9 40 0 22 5 40 10 40 4 0 3 7 -4 15 -7 9 -9 22 -5 32 15 34 14
73 -2 73 -13 0 -13 3 -3 15 10 12 10 18 1 29 -9 10 -9 16 -1 21 8 5 8 11 0 20
-6 7 -8 20 -4 29 4 10 1 16 -7 16 -7 0 -10 3 -6 6 3 3 -2 20 -12 37 -10 18
-16 38 -14 45 8 22 32 12 50 -20z m2905 -50 c29 -54 18 -448 -13 -448 -5 0 -9
6 -9 13 0 6 -1 112 -3 235 -1 122 1 222 5 222 4 0 13 -10 20 -22z m-2937 -40
c11 -57 11 -432 0 -448 -8 -12 -11 -9 -16 15 -11 49 -10 465 1 465 5 0 12 -15
15 -32z m3023 -168 c3 -30 -20 -66 -36 -56 -13 8 -16 68 -5 80 14 14 38 0 41
-24z m-3068 -61 c0 -72 -20 -77 -34 -9 -8 37 -7 45 9 56 10 8 20 14 22 14 2 0
3 -27 3 -61z m984 -48 c10 -78 76 -198 151 -275 36 -36 65 -69 65 -71 0 -3
-29 -5 -65 -5 -59 0 -65 2 -65 21 0 11 -18 50 -40 87 -61 105 -68 112 -100
112 -23 0 -30 5 -30 20 0 11 -6 20 -13 20 -13 0 -37 72 -37 110 0 16 9 20 53
23 28 2 57 4 63 5 7 1 14 -20 18 -47z m-726 -48 c-3 -33 -6 -38 -32 -41 -16
-2 -33 1 -38 6 -15 15 28 72 53 72 17 0 20 -6 17 -37z m2369 -243 c-7 -56 -14
-73 -28 -65 -21 14 -2 115 22 115 8 0 10 -15 6 -50z m199 -41 c12 -19 -13 -34
-32 -18 -16 12 -17 12 -11 -3 3 -9 -1 -22 -9 -28 -11 -10 -14 -9 -14 4 0 9 -5
16 -11 16 -6 0 -9 6 -6 13 2 6 11 11 20 9 8 -1 18 2 22 8 8 13 32 13 41 -1z
m-89 -52 c-7 -21 -32 -13 -35 11 -3 21 -1 22 18 12 12 -6 19 -17 17 -23z
m-2417 14 c0 -6 -4 -12 -10 -16 -5 -3 -6 -13 -3 -21 8 -22 -37 -15 -51 9 -8
14 -8 20 4 27 19 12 60 13 60 1z m55 -11 c-3 -5 -1 -19 5 -30 9 -17 8 -20 -8
-20 -10 0 -27 9 -36 19 -16 18 -16 20 5 35 22 15 44 13 34 -4z m775 13 c0 -5
-17 -17 -38 -28 -23 -13 -38 -28 -40 -43 -3 -19 -9 -23 -30 -20 -21 2 -28 9
-30 30 -4 31 16 45 81 58 58 11 57 11 57 3z m1463 -8 c19 -14 20 -46 1 -52 -5
-2 -18 12 -27 32 -18 38 -8 46 26 20z m-2167 -30 c0 -40 -3 -41 -34 -19 -35
25 -26 51 19 53 11 1 15 -9 15 -34z m174 29 c0 -4 -8 -12 -17 -19 -15 -11 -15
-15 -4 -29 14 -17 10 -20 -24 -16 -22 2 -55 28 -55 42 0 5 10 13 23 18 26 10
77 13 77 4z m216 -34 c2 -45 -15 -53 -48 -23 -23 20 -23 39 0 52 35 21 47 13
48 -29z m81 25 c-12 -9 -17 -23 -15 -41 4 -37 -13 -40 -43 -8 l-24 26 24 19
c13 10 35 19 50 19 24 -1 25 -2 8 -15z m79 -4 c-10 -11 -16 -30 -14 -43 4 -28
-32 -38 -51 -14 -20 24 -8 50 29 63 49 17 56 16 36 -6z m250 10 c-4 -5 3 -7
14 -4 21 5 28 -11 10 -22 -5 -3 -10 -19 -10 -36 0 -22 -5 -29 -19 -29 -32 0
-53 28 -40 51 10 19 9 20 -11 9 -15 -8 -19 -17 -15 -31 6 -18 3 -20 -37 -17
-35 2 -44 7 -46 24 -2 17 7 25 45 42 49 21 119 29 109 13z m1248 3 c17 -6 23
-59 8 -68 -7 -4 -42 54 -42 69 0 7 15 6 34 -1z m76 -15 c14 -25 6 -49 -15 -49
-8 0 -15 1 -15 3 0 1 -4 17 -9 35 -8 28 -7 32 9 32 11 0 24 -9 30 -21z m-2069
-11 c24 -29 24 -38 0 -38 -21 0 -54 38 -45 52 9 14 25 9 45 -14z m174 12 c-3
-5 -1 -19 5 -31 14 -25 8 -33 -19 -24 -35 11 -54 35 -40 51 13 16 64 20 54 4z
m79 -5 c-4 -8 -1 -21 5 -29 13 -15 5 -26 -20 -26 -21 0 -43 35 -35 56 3 8 17
14 30 14 19 0 24 -4 20 -15z m1064 -13 c25 -16 29 -44 8 -61 -20 -17 -44 -3
-51 30 -4 16 -11 31 -16 34 -5 4 -9 11 -9 16 0 12 35 2 68 -19z m254 -6 c18
-26 8 -46 -21 -46 -22 0 -30 5 -34 23 -2 12 -8 30 -12 39 -6 16 -4 17 26 6 19
-6 37 -16 41 -22z m156 12 c19 -16 10 -50 -15 -59 -18 -7 -24 -2 -41 31 -11
22 -17 42 -13 45 7 8 52 -4 69 -17z m72 4 c17 -14 21 -24 15 -41 -8 -27 -38
-24 -43 4 -2 11 -11 28 -20 38 -14 16 -13 17 5 17 12 0 31 -8 43 -18z m78 6
c7 -7 12 -25 12 -40 0 -41 -26 -35 -49 12 l-19 40 22 0 c12 0 27 -5 34 -12z
m82 -7 c12 -23 4 -51 -15 -51 -7 0 -22 16 -34 35 l-20 35 29 0 c19 0 33 -7 40
-19z m-1122 -34 c3 -33 1 -37 -21 -37 -33 0 -47 48 -21 67 27 20 39 11 42 -30z
m547 31 c18 -8 25 -19 25 -40 0 -23 -4 -28 -25 -28 -18 0 -25 5 -25 19 0 10
-7 24 -15 31 -33 28 -8 40 40 18z m103 0 c18 -18 14 -46 -7 -58 -27 -14 -51
-2 -51 24 0 12 -5 27 -12 34 -9 9 -4 12 23 12 19 0 40 -5 47 -12z m143 2 c11
-6 19 -21 19 -35 0 -20 -5 -25 -25 -25 -21 0 -25 5 -25 29 0 16 -6 32 -12 34
-8 3 -5 6 5 6 10 1 27 -4 38 -9z m-390 -10 c23 -13 24 -33 4 -54 -20 -20 -45
-10 -45 18 0 12 -5 27 -12 34 -9 9 -7 12 11 12 12 0 31 -5 42 -10z m-323 -32
c3 -24 0 -28 -22 -28 -15 0 -30 8 -36 19 -17 33 -12 42 23 39 27 -2 33 -8 35
-30z m260 20 c16 -16 15 -23 -4 -42 -21 -22 -33 -20 -44 7 -6 16 -9 18 -9 5
-1 -19 -41 -34 -66 -24 -8 3 -15 17 -15 32 0 24 2 26 40 22 22 -2 40 0 40 4 0
13 45 9 58 -4z m-159 -17 c8 -14 7 -22 -4 -31 -21 -18 -69 1 -73 28 -3 19 1
22 32 22 24 0 38 -6 45 -19z m-2904 -45 c68 -31 115 -74 149 -136 37 -68 34
-149 -7 -204 -44 -57 -92 -88 -145 -93 -42 -4 -53 -1 -108 36 -33 22 -66 52
-72 66 -15 32 -16 100 -2 126 14 24 55 25 95 1 l30 -19 42 36 c41 34 42 36 25
54 -27 31 -113 67 -160 67 -76 0 -124 -39 -153 -127 l-14 -41 -54 50 -54 49
39 40 c118 121 258 155 389 95z m6033 -2 c29 -15 79 -50 110 -79 l57 -53 -55
-50 -55 -50 -12 39 c-26 85 -79 129 -155 129 -47 0 -133 -36 -160 -67 -17 -18
-16 -20 26 -55 l43 -36 29 19 c38 25 80 25 94 0 14 -26 12 -101 -3 -128 -22
-39 -106 -95 -151 -100 -70 -8 -168 59 -197 134 -35 92 23 218 129 280 99 59
202 64 300 17z m-2724 0 c23 -9 20 -34 -3 -34 -22 0 -35 15 -26 30 7 12 8 12
29 4z m417 -17 c-13 -13 -26 -3 -16 12 3 6 11 8 17 5 6 -4 6 -10 -1 -17z m99
13 c0 -5 -7 -10 -15 -10 -8 0 -15 5 -15 10 0 6 7 10 15 10 8 0 15 -4 15 -10z
m40 2 c0 -13 -12 -22 -22 -16 -10 6 -1 24 13 24 5 0 9 -4 9 -8z m-1266 -8 c28
-11 18 -34 -13 -34 -34 0 -51 18 -30 31 17 10 23 11 43 3z m104 -16 c3 -14 -3
-18 -25 -18 -15 0 -35 5 -43 10 -13 9 -13 11 0 20 23 15 64 8 68 -12z m66 16
c28 -11 17 -24 -19 -24 -34 0 -47 13 -22 23 18 8 23 8 41 1z m102 -5 c10 -18
-13 -32 -40 -25 -37 9 -34 36 3 36 17 0 33 -5 37 -11z m89 -4 c0 -12 -40 -19
-61 -11 -9 3 -12 11 -9 16 8 14 70 9 70 -5z m65 0 c0 -9 -9 -15 -25 -15 -24 0
-32 10 -18 23 12 13 43 7 43 -8z m80 1 c0 -8 -4 -18 -10 -21 -13 -8 -52 14
-45 26 10 15 55 11 55 -5z m78 2 c-7 -20 -58 -23 -58 -4 0 11 10 16 31 16 20
0 29 -4 27 -12z m73 -3 c0 -5 -12 -11 -26 -13 -18 -2 -25 1 -25 13 0 12 7 15
25 13 14 -2 26 -7 26 -13z m137 -2 c2 -8 -6 -13 -22 -13 -17 0 -26 5 -26 16 0
19 41 16 48 -3z m55 2 c1 -5 -6 -11 -15 -13 -11 -2 -18 3 -18 13 0 17 30 18
33 0z m67 6 c0 -6 -5 -13 -10 -16 -15 -9 -43 3 -35 15 8 13 45 13 45 1z m70 0
c0 -6 -5 -13 -10 -16 -15 -9 -43 3 -35 15 8 13 45 13 45 1z m48 -3 c-6 -18
-28 -21 -28 -4 0 9 7 16 16 16 9 0 14 -5 12 -12z m50 0 c-6 -18 -28 -21 -28
-4 0 9 7 16 16 16 9 0 14 -5 12 -12z m87 2 c3 -5 -1 -10 -9 -10 -9 0 -16 5
-16 10 0 6 4 10 9 10 6 0 13 -4 16 -10z m-1891 -16 c4 -9 4 -19 2 -21 -8 -8
-26 8 -26 23 0 19 16 18 24 -2z m54 -20 c-10 -10 -28 6 -28 24 0 15 1 15 17
-1 9 -9 14 -19 11 -23z m50 13 c2 -11 -3 -17 -16 -17 -20 0 -36 23 -24 34 11
12 37 1 40 -17z m221 14 c13 -8 8 -31 -7 -31 -17 1 -34 19 -28 29 9 13 16 14
35 2z m69 -8 c2 -8 -5 -13 -17 -13 -21 0 -35 13 -24 24 10 10 36 3 41 -11z
m66 11 c20 -8 11 -24 -15 -24 -10 0 -19 7 -19 15 0 16 9 19 34 9z m74 -11 c2
-8 -6 -13 -22 -13 -17 0 -26 5 -26 16 0 19 41 16 48 -3z m52 1 c0 -9 -7 -14
-17 -12 -25 5 -28 28 -4 28 12 0 21 -6 21 -16z m68 -2 c3 -9 -3 -13 -19 -10
-12 1 -24 9 -27 16 -3 9 3 13 19 10 12 -1 24 -9 27 -16z m-507 -7 c-1 -15 -24
-12 -29 3 -3 9 2 13 12 10 10 -1 17 -7 17 -13z m69 0 c0 -8 -9 -15 -19 -15
-10 0 -21 7 -25 15 -4 11 1 15 19 15 16 0 25 -6 25 -15z m57 1 c-4 -9 1 -16
10 -18 9 -2 21 -22 28 -45 l13 -43 -29 0 c-29 0 -34 8 -42 67 -2 12 -6 26 -10
29 -13 14 -7 24 14 24 14 0 19 -5 16 -14z m1701 -39 c3 -21 -3 -30 -22 -39
-31 -14 -41 -7 -27 19 5 10 12 26 15 36 8 26 30 16 34 -16z m-1558 9 c0 -7 3
-28 6 -45 6 -29 5 -31 -24 -31 -18 0 -32 6 -36 16 -8 21 -8 59 1 67 12 13 53
7 53 -7z m98 4 c4 0 8 -18 9 -41 1 -39 0 -40 -30 -37 -28 3 -32 7 -35 37 -4
35 12 55 36 46 8 -3 17 -5 20 -5z m118 -6 c-3 -9 -6 -27 -6 -40 0 -21 -5 -24
-34 -24 -34 0 -46 13 -46 50 0 22 13 28 59 29 26 1 32 -2 27 -15z m79 0 c26
-27 15 -58 -21 -62 -27 -3 -33 1 -38 23 -12 47 26 71 59 39z m553 4 c7 -7 12
-22 12 -35 0 -20 -5 -23 -35 -23 -33 0 -35 2 -35 35 0 30 3 35 23 35 13 0 28
-5 35 -12z m81 -5 c30 -26 19 -65 -18 -61 -19 2 -26 8 -24 23 1 10 -3 27 -8
37 -8 14 -6 18 10 18 10 0 28 -8 40 -17z m87 -8 c21 -33 12 -55 -24 -55 -28 0
-29 2 -28 40 1 48 26 55 52 15z m102 -12 c-3 -35 -6 -38 -35 -41 -30 -3 -33
-1 -33 25 0 16 -5 34 -12 41 -9 9 -1 12 36 12 l47 0 -3 -37z m106 29 c3 -5 2
-22 -3 -38 -6 -23 -14 -30 -38 -32 -29 -3 -30 -2 -30 37 0 40 1 41 33 41 18 0
35 -4 38 -8z m94 -17 c3 -28 -8 -42 -40 -50 -26 -7 -27 -5 -26 35 0 40 1 41
32 38 22 -2 32 -9 34 -23z m120 13 c21 -21 13 -46 -18 -56 -35 -13 -39 -8 -33
36 6 34 28 43 51 20z m-1648 -7 c0 -5 3 -23 6 -40 6 -26 3 -31 -13 -31 -27 0
-43 19 -43 52 0 23 4 28 25 28 14 0 25 -4 25 -9z m620 2 c0 -5 3 -18 6 -30 6
-21 3 -23 -35 -23 -39 0 -41 2 -41 30 0 28 3 30 35 30 19 0 35 -3 35 -7z m90
-8 c19 -23 4 -45 -29 -45 -35 0 -42 8 -34 38 6 26 44 30 63 7z m88 -13 c3 -19
-1 -22 -27 -22 -24 0 -31 4 -31 19 0 37 53 39 58 3z m72 9 c15 -28 13 -31 -19
-31 -20 0 -30 6 -34 19 -3 11 -2 22 1 25 12 13 42 5 52 -13z m104 3 c13 -35 7
-44 -32 -44 -33 0 -39 4 -49 30 l-11 30 43 0 c30 0 45 -5 49 -16z m-1089 -24
c19 -36 19 -40 1 -40 -21 0 -46 28 -46 51 0 29 28 23 45 -11z m-2381 -202
c146 -127 238 -197 366 -279 692 -444 1531 -691 2545 -750 217 -13 761 -7 950
11 943 86 1694 315 2308 704 71 44 144 91 164 102 40 24 140 106 261 213 46
40 86 71 89 68 3 -3 108 -171 234 -374 l228 -368 -72 -69 c-107 -102 -359
-301 -513 -406 -710 -483 -1526 -776 -2449 -879 -505 -57 -1085 -58 -1585 -5
-1006 106 -1888 435 -2624 978 -129 94 -316 248 -398 327 l-57 54 232 373
c127 204 232 372 234 372 2 0 41 -33 87 -72z m2471 -148 l0 -165 -87 -3 -88
-3 0 171 0 171 88 -3 87 -3 0 -165z m255 0 l0 -171 -67 3 -68 3 -3 155 c-1 85
0 160 2 167 4 9 27 13 71 13 l65 0 0 -170z m255 0 l0 -165 -67 -3 -68 -3 0
171 0 171 68 -3 67 -3 0 -165z m255 0 l0 -171 -67 3 -68 3 -3 155 c-1 85 0
160 2 167 4 9 27 13 71 13 l65 0 0 -170z m255 0 l0 -165 -67 -3 -68 -3 0 171
0 171 68 -3 67 -3 0 -165z m255 0 l0 -171 -67 3 -68 3 -3 155 c-1 85 0 160 2
167 4 9 27 13 71 13 l65 0 0 -170z m255 0 l0 -165 -67 -3 -68 -3 0 171 0 171
68 -3 67 -3 0 -165z m295 0 l0 -171 -87 3 -88 3 -3 155 c-1 85 0 160 2 167 4
9 30 13 91 13 l85 0 0 -170z m-2025 -490 c0 -176 -2 -205 -15 -203 -8 1 -48 7
-87 13 l-73 12 0 194 0 195 88 -3 87 -3 0 -205z m323 -23 l2 -227 -57 6 c-32
4 -78 10 -103 13 l-45 6 -3 205 c-1 112 0 210 3 218 3 9 29 12 102 10 l98 -3
3 -228z m322 -7 l0 -240 -54 0 c-29 0 -74 3 -100 6 l-46 7 0 233 0 234 100 0
100 0 0 -240z m320 -5 l0 -245 -100 0 -100 0 0 245 0 245 100 0 100 0 0 -245z
m320 0 l0 -245 -100 0 -100 0 0 245 0 245 100 0 100 0 0 -245z m320 11 l0
-233 -52 -7 c-29 -3 -74 -6 -100 -6 l-48 0 0 240 0 240 100 0 100 0 0 -234z
m325 14 l0 -215 -55 -7 c-30 -3 -76 -9 -102 -12 l-48 -7 0 224 c0 123 3 227 7
231 4 4 50 5 103 4 l95 -3 0 -215z m295 26 l0 -194 -72 -12 c-40 -6 -80 -12
-88 -13 -13 -2 -15 27 -18 193 -1 107 0 200 2 207 4 9 31 13 91 13 l85 0 0
-194z"/>
<path d="M3825 11509 c-775 -73 -1446 -609 -1694 -1354 -342 -1028 215 -2144
1243 -2489 709 -238 1487 -55 2016 474 500 500 692 1215 513 1910 -117 456
-428 884 -838 1152 -357 235 -811 347 -1240 307z m102 -384 c6 -143 16 -363
22 -490 35 -757 35 -793 16 -774 -2 3 -38 232 -79 510 -42 277 -89 596 -106
709 -17 113 -33 224 -37 247 -5 38 -3 42 18 47 41 9 83 14 119 12 l35 -1 12
-260z m280 256 c29 -4 55 -10 58 -13 3 -3 -15 -137 -39 -299 -25 -162 -75
-490 -111 -729 -76 -506 -71 -480 -90 -480 -11 0 -14 7 -11 23 3 12 7 94 11
182 3 88 10 252 15 365 22 457 40 863 40 910 l0 50 38 -1 c20 0 61 -4 89 -8z
m-562 -358 c43 -175 115 -473 161 -663 46 -190 92 -380 103 -423 11 -47 15
-80 9 -83 -5 -3 -11 -4 -14 -1 -7 6 -515 1429 -512 1432 4 4 161 54 169 55 4
0 42 -143 84 -317z m908 284 c37 -11 67 -24 67 -28 0 -4 -97 -277 -216 -606
-119 -329 -234 -649 -256 -710 -25 -69 -46 -113 -54 -113 -8 0 -14 6 -14 14 0
7 50 215 111 462 60 247 137 559 170 694 33 135 64 262 70 283 11 42 0 42 122
4z m-1005 -772 c171 -368 312 -676 314 -684 2 -8 -4 -16 -12 -18 -10 -2 -42
43 -96 135 -45 75 -217 364 -383 642 -165 278 -302 510 -302 515 -2 13 154 96
162 87 4 -4 146 -308 317 -677z m1393 560 c-591 -971 -774 -1271 -777 -1274
-3 -3 -9 0 -15 6 -8 8 82 210 312 702 l322 691 88 -47 88 -47 -18 -31z m-1572
-676 c336 -463 440 -613 430 -620 -8 -4 -17 -5 -21 -1 -95 99 -1007 1109
-1005 1113 4 12 132 118 142 118 6 0 210 -274 454 -610z m1805 550 c33 -29 61
-56 61 -60 0 -9 -979 -1083 -1010 -1109 -8 -6 -19 -9 -24 -6 -6 4 35 68 92
145 652 880 802 1081 810 1081 5 0 37 -23 71 -51z m-1931 -728 c325 -297 514
-478 508 -484 -5 -5 -15 -5 -23 -1 -8 5 -281 207 -606 448 -403 300 -589 443
-584 452 4 7 29 40 57 73 l49 60 41 -37 c22 -20 273 -250 558 -511z m2215 433
l31 -41 -451 -329 c-249 -181 -524 -382 -613 -446 -149 -110 -180 -127 -180
-101 0 5 207 199 460 429 253 230 504 460 559 510 l99 91 31 -36 c18 -20 46
-54 64 -77z m-2451 -520 c313 -191 600 -367 640 -391 49 -30 70 -49 67 -58 -5
-12 -11 -12 -37 -1 -41 18 -1273 594 -1310 612 l-27 15 21 42 c30 58 70 127
75 127 2 0 259 -156 571 -346z m2621 255 c24 -45 40 -85 35 -90 -4 -4 -314
-149 -688 -323 -424 -196 -684 -311 -690 -305 -5 6 -5 13 2 20 11 11 1283 776
1293 778 3 0 24 -36 48 -80z m-2656 -490 c381 -138 698 -254 705 -257 7 -4 9
-13 4 -20 -6 -10 -85 6 -352 72 -189 46 -513 126 -719 176 -206 51 -378 95
-382 99 -6 5 40 181 48 181 1 0 314 -113 696 -251z m2788 169 c12 -40 24 -81
26 -90 4 -12 -2 -19 -18 -23 -13 -3 -151 -36 -308 -74 -157 -39 -472 -115
-700 -171 -228 -55 -423 -103 -433 -106 -14 -4 -18 -1 -15 11 2 13 146 69 573
222 314 112 631 226 705 253 74 27 138 49 142 49 4 1 17 -32 28 -71z m-2920
-369 c327 -49 648 -97 713 -107 88 -12 117 -20 117 -31 0 -15 -111 -13 -570 9
-194 9 -502 24 -784 36 l-148 7 7 80 c9 102 11 107 43 101 15 -2 295 -45 622
-95z m2984 74 c3 -10 8 -50 12 -90 6 -70 6 -72 -17 -77 -13 -2 -152 -10 -309
-16 -157 -6 -469 -20 -695 -31 -498 -23 -495 -23 -495 -5 0 17 -43 9 580 102
283 42 596 89 695 104 222 34 222 34 229 13z m-2154 -278 c0 -8 -3 -15 -6 -15
-3 0 -81 -11 -172 -25 -688 -105 -1305 -195 -1308 -192 -2 2 -5 44 -6 93 l-3
89 290 13 c160 7 461 21 670 31 506 25 535 25 535 6z m985 -5 c143 -6 348 -15
455 -20 107 -5 314 -14 460 -21 146 -6 266 -13 268 -14 6 -5 -10 -162 -17
-173 -5 -8 -201 18 -631 84 -344 52 -679 103 -745 112 -94 14 -120 21 -123 34
-3 13 4 16 35 12 21 -2 155 -9 298 -14z m-969 -67 c-6 -6 -1400 -503 -1411
-503 -16 0 -62 158 -49 169 5 5 160 45 344 90 184 45 508 123 720 175 262 64
387 90 392 82 4 -6 6 -12 4 -13z m1057 -84 c761 -187 1038 -256 1042 -261 7
-6 -47 -178 -56 -178 -8 0 -1422 510 -1428 515 -6 6 10 25 20 25 6 0 195 -46
422 -101z m-1033 28 c0 -7 -92 -66 -203 -132 -111 -65 -399 -238 -641 -382
-241 -145 -441 -263 -445 -263 -6 0 -93 161 -89 165 2 2 212 100 468 218 256
118 562 260 680 315 118 55 218 98 222 96 5 -3 8 -11 8 -17z m1284 -314 l676
-316 -46 -88 c-25 -49 -49 -87 -52 -85 -4 2 -263 160 -577 351 -313 192 -604
369 -646 394 -45 27 -74 51 -71 59 2 7 12 10 22 7 11 -3 323 -148 694 -322z
m-1249 259 c0 -6 -249 -238 -554 -516 -464 -423 -557 -503 -569 -493 -8 6 -37
41 -64 76 l-48 64 52 38 c29 21 303 220 608 443 305 223 560 404 565 402 6 -1
10 -8 10 -14z m1138 -450 l597 -444 -19 -26 c-10 -15 -37 -47 -59 -72 l-39
-45 -44 40 c-246 221 -1079 989 -1079 995 0 15 14 19 29 7 10 -7 286 -211 614
-455z m-1533 -202 c-249 -336 -456 -609 -461 -608 -4 2 -37 27 -73 57 l-66 54
43 46 c23 25 256 279 516 564 310 339 477 515 484 508 6 -6 -147 -221 -443
-621z m1384 50 l505 -555 -22 -23 c-42 -44 -128 -105 -136 -96 -5 5 -208 283
-451 617 -305 420 -440 613 -436 624 8 20 -64 96 540 -567z m-882 535 c8 -9
-641 -1390 -652 -1388 -30 8 -160 89 -158 98 7 27 784 1294 794 1295 6 0 13
-2 16 -5z m390 -137 c47 -79 223 -374 392 -656 168 -282 306 -516 306 -520 0
-7 -162 -94 -166 -89 -15 16 -643 1391 -639 1397 4 6 10 10 14 10 5 0 47 -64
93 -142z m-330 91 c-2 -13 -71 -294 -152 -624 -81 -330 -160 -652 -175 -715
-15 -63 -31 -119 -35 -124 -5 -4 -47 4 -95 19 -67 22 -86 31 -82 44 3 13 479
1332 508 1409 12 30 35 23 31 -9z m443 -698 c140 -392 255 -716 255 -720 0 -7
-171 -64 -175 -59 -2 3 -128 520 -305 1253 -54 222 -62 271 -39 248 5 -5 124
-330 264 -722z m-382 643 c-7 -175 -65 -1469 -67 -1471 -3 -3 -179 17 -183 21
-2 1 10 90 27 197 51 330 200 1317 200 1324 0 4 6 5 13 2 8 -3 11 -25 10 -73z
m67 66 c0 -9 102 -700 180 -1220 49 -322 47 -297 14 -303 -16 -3 -57 -9 -91
-12 l-61 -7 -6 54 c-3 29 -10 172 -16 318 -6 146 -15 355 -20 465 -35 737 -35
715 -10 715 5 0 10 -4 10 -10z"/>
<path d="M3546 7160 c31 -12 37 -26 18 -44 -9 -9 -11 -16 -4 -16 17 0 50 19
50 30 0 18 -32 40 -58 39 -25 0 -26 -1 -6 -9z"/>
<path d="M3697 6998 c-29 -29 -44 -46 -33 -37 80 64 141 75 181 35 24 -25 42
-72 31 -83 -8 -9 -37 18 -46 43 -6 14 -21 25 -40 29 -27 6 -39 2 -74 -24 -22
-18 -49 -35 -58 -38 -10 -3 -18 -9 -18 -14 0 -11 28 0 70 28 45 30 83 30 107
-1 10 -13 29 -27 41 -31 33 -10 22 -26 -29 -41 -58 -18 -89 -17 -134 2 -20 8
-44 14 -53 12 -10 -2 10 -14 43 -26 57 -21 136 -25 163 -8 18 11 21 -7 6 -36
-23 -45 -2 -77 66 -99 76 -25 101 -24 170 11 60 30 64 35 60 78 -1 16 4 22 19
22 40 0 51 -71 14 -101 -8 -7 -31 -16 -51 -20 -34 -8 -34 -8 11 -5 59 4 85 26
89 75 l3 36 23 -22 c27 -28 28 -62 2 -95 -31 -40 -73 -53 -122 -39 -71 22 -74
22 -33 1 70 -34 139 -21 183 35 37 47 57 22 27 -35 -8 -16 -23 -33 -33 -38
-57 -30 -177 -19 -226 19 -14 11 -26 17 -26 13 0 -19 89 -68 142 -78 80 -15
178 40 178 99 0 15 -11 40 -25 57 -14 16 -25 36 -25 44 0 8 -19 23 -42 33
l-43 18 35 8 c34 7 124 64 116 73 -3 2 -27 -8 -53 -23 -38 -21 -61 -27 -107
-26 -90 1 -99 6 -93 52 10 77 80 135 140 118 17 -5 49 -23 71 -41 40 -32 40
-32 19 -5 -58 75 -137 98 -196 57 -42 -29 -77 -79 -77 -110 0 -14 7 -44 16
-67 23 -61 11 -73 -75 -73 -93 0 -100 7 -78 68 22 64 22 89 -3 130 -28 46 -76
72 -132 72 -43 0 -51 -4 -101 -52z m201 -214 c-5 -28 -28 -29 -28 -1 0 13 3
27 7 30 10 11 25 -9 21 -29z m237 16 c7 -21 0 -40 -16 -40 -5 0 -9 14 -9 30 0
34 15 40 25 10z"/>
<path d="M4212 6977 c-19 -11 -72 -77 -72 -91 0 -2 8 -2 18 1 10 2 24 20 31
39 10 28 17 34 40 34 16 0 40 -9 54 -20 41 -32 63 -25 25 9 -42 36 -67 43 -96
28z"/>
<path d="M3768 6800 c-25 -16 -49 -38 -52 -48 -4 -11 -15 -27 -26 -37 -24 -21
-25 -46 -5 -84 31 -61 141 -73 238 -27 75 36 69 43 -9 11 -68 -28 -113 -31
-154 -10 -35 18 -70 61 -70 86 0 25 15 24 34 -2 39 -56 124 -75 191 -44 l30
14 -30 -7 c-60 -14 -113 -8 -139 17 -29 28 -41 68 -25 87 16 20 29 17 29 -5 0
-37 41 -72 90 -77 42 -4 43 -3 13 6 -17 6 -41 22 -52 36 -23 29 -28 83 -9 102
21 21 -6 12 -54 -18z"/>
<path d="M3699 6562 c6 -12 20 -26 31 -32 24 -13 60 -13 60 0 0 6 -11 10 -24
10 -13 0 -36 10 -51 22 l-28 21 12 -21z"/>
<path d="M4823 6771 c-7 -11 -34 -24 -63 -31 -34 -8 -56 -20 -67 -36 -8 -13
-24 -24 -34 -24 -11 0 -19 -7 -19 -15 0 -25 40 -17 50 10 8 21 16 25 50 25 53
0 74 12 90 50 14 35 10 48 -7 21z"/>
<path d="M3245 6737 c73 -73 71 -146 -4 -148 l-26 0 25 -10 c33 -13 67 -4 81
22 16 31 -13 100 -62 143 -55 50 -65 45 -14 -7z"/>
<path d="M3094 6683 c21 -42 63 -63 123 -63 l47 0 -21 21 c-13 14 -38 23 -69
26 -30 3 -58 14 -73 27 l-24 21 17 -32z"/>
<path d="M3055 6256 c2 -21 14 -50 26 -63 27 -28 97 -49 112 -34 16 16 -10 40
-52 47 -53 10 -69 21 -81 57 l-10 32 5 -39z"/>
<path d="M2711 6409 c-15 -12 -40 -19 -70 -20 -35 0 -41 -2 -26 -9 39 -17 81
-11 105 15 29 31 23 40 -9 14z"/>
<path d="M2685 6110 c-3 -5 -17 -10 -30 -10 -30 0 -55 -10 -55 -21 0 -14 64 2
85 22 11 11 16 19 13 19 -4 0 -10 -4 -13 -10z"/>
<path d="M5503 6628 c-24 -29 -81 -118 -76 -118 3 0 23 16 44 35 43 38 63 43
77 19 8 -14 10 -14 22 1 12 14 12 21 -1 43 -16 30 -50 40 -66 20z"/>
<path d="M5531 6510 c-24 -17 -39 -30 -34 -30 6 0 26 -11 46 -24 l35 -24 -16
28 c-15 25 -15 30 1 54 10 14 16 26 15 26 -2 0 -23 -14 -47 -30z"/>
<path d="M5400 6485 c0 -2 20 -13 44 -24 52 -23 72 -51 56 -81 -11 -21 1 -27
34 -14 24 9 19 29 -14 62 -24 25 -120 70 -120 57z"/>
<path d="M3980 6430 c0 -23 -4 -24 -33 -8 -20 10 -21 10 -8 -5 7 -10 24 -17
37 -17 19 0 24 5 24 25 0 14 -4 25 -10 25 -5 0 -10 -9 -10 -20z"/>
<path d="M4202 6380 c-1 -14 -9 -38 -17 -54 -19 -35 -14 -43 9 -17 12 13 16
31 13 58 -2 21 -4 27 -5 13z"/>
<path d="M3831 6333 c-1 -17 4 -35 10 -38 16 -10 16 -3 3 35 l-13 35 0 -32z"/>
<path d="M3930 6274 c-23 -8 -28 -13 -15 -13 30 -1 65 10 65 20 0 11 -5 10
-50 -7z"/>
<path d="M4074 6271 c5 -8 56 -3 56 5 0 2 -14 4 -31 4 -16 0 -28 -4 -25 -9z"/>
<path d="M3318 4665 c-3 -11 -9 -78 -13 -150 -5 -105 -14 -159 -46 -281 -42
-164 -46 -183 -24 -143 28 51 73 188 85 255 12 71 11 355 -2 319z"/>
<path d="M3041 4014 c0 -11 3 -14 6 -6 3 7 2 16 -1 19 -3 4 -6 -2 -5 -13z"/>
<path d="M3031 3964 c0 -11 3 -14 6 -6 3 7 2 16 -1 19 -3 4 -6 -2 -5 -13z"/>
<path d="M5262 3600 c0 -19 2 -27 5 -17 2 9 2 25 0 35 -3 9 -5 1 -5 -18z"/>
<path d="M3895 3512 c-138 -41 -241 -124 -296 -239 -28 -58 -34 -82 -37 -159
-5 -104 11 -168 59 -244 164 -261 547 -297 762 -71 82 86 110 152 115 271 3
78 0 106 -17 155 -45 129 -147 231 -273 275 -88 31 -232 36 -313 12z m177 -18
c13 -13 21 -14 31 -5 19 15 77 3 77 -16 0 -9 8 -13 23 -12 36 4 67 -11 78 -37
6 -17 15 -24 28 -22 24 4 61 -29 61 -54 0 -10 10 -22 24 -27 27 -11 39 -36 30
-63 -4 -14 0 -21 15 -25 24 -6 38 -57 22 -77 -8 -10 -7 -17 4 -26 8 -7 15 -25
15 -40 0 -15 -7 -33 -15 -40 -11 -9 -12 -16 -4 -26 14 -17 2 -74 -17 -74 -14
0 -18 -12 -15 -38 3 -20 -27 -62 -44 -62 -8 0 -15 -8 -15 -18 0 -25 -37 -58
-61 -54 -13 2 -22 -5 -28 -22 -10 -24 -43 -42 -70 -37 -8 2 -21 -5 -28 -16
-11 -14 -26 -18 -63 -16 -28 0 -50 -3 -50 -8 0 -5 -18 -9 -40 -9 -22 0 -40 4
-40 9 0 5 -22 8 -50 8 -37 -2 -52 2 -63 16 -7 11 -20 18 -28 16 -27 -5 -60 13
-70 38 -6 17 -14 23 -27 19 -21 -7 -68 36 -57 53 3 6 -5 15 -19 21 -25 9 -48
41 -45 63 3 26 -1 37 -15 37 -19 0 -31 57 -17 74 8 10 7 17 -4 26 -8 7 -15 25
-15 40 0 15 7 33 15 40 11 9 12 16 4 26 -16 20 -1 71 23 77 14 4 19 11 14 23
-10 26 3 54 30 64 13 6 24 18 24 28 0 25 37 58 61 54 13 -2 22 5 28 22 11 26
42 41 79 37 14 -1 22 3 22 12 0 19 58 31 77 15 11 -9 18 -8 31 5 21 22 60 22
84 1z"/>
<path d="M3941 3395 c-1 -14 35 -146 48 -175 10 -23 11 -22 5 10 -7 41 -52
180 -53 165z"/>
<path d="M4087 3307 c-28 -96 -33 -123 -18 -97 12 19 53 181 48 186 -2 2 -15
-38 -30 -89z"/>
<path d="M4168 3322 c-53 -79 -84 -137 -69 -128 6 4 30 39 53 79 23 40 48 82
56 95 8 12 12 22 10 22 -3 0 -25 -30 -50 -68z"/>
<path d="M4027 3363 c-11 -10 -8 -131 3 -138 6 -4 10 22 10 69 0 76 -1 82 -13
69z"/>
<path d="M3892 3300 c18 -33 43 -72 56 -88 l23 -27 -17 35 c-19 39 -85 140
-91 140 -2 0 11 -27 29 -60z"/>
<path d="M3849 3251 c52 -51 92 -94 89 -96 -3 -3 -53 20 -111 51 -59 30 -107
53 -107 51 0 -6 151 -93 175 -101 18 -5 21 -14 20 -64 l0 -59 -83 -44 c-46
-24 -86 -48 -89 -53 -4 -5 37 13 89 41 94 49 96 50 112 31 16 -18 15 -23 -22
-81 -21 -34 -44 -73 -51 -87 l-12 -25 20 25 c11 14 37 53 57 87 34 59 64 76
49 29 -18 -58 -45 -162 -44 -171 1 -16 39 95 50 146 9 41 13 46 38 47 27 1 30
-3 45 -61 17 -68 44 -148 45 -132 0 6 -9 44 -20 85 -11 41 -23 85 -26 98 -10
41 14 22 51 -40 20 -35 46 -74 57 -88 26 -32 -36 84 -68 127 -20 26 -22 33
-10 40 56 32 44 143 -18 171 -32 15 -90 16 -116 1 -17 -8 -26 -3 -63 34 -25
24 -68 63 -98 86 -34 28 -20 11 41 -48z m247 -103 c36 -37 35 -87 -1 -123 -18
-19 -35 -25 -70 -25 -35 0 -52 6 -70 25 -27 26 -33 72 -15 105 28 52 114 61
156 18z"/>
<path d="M3982 3128 c-17 -17 -15 -64 4 -82 35 -36 104 -6 104 45 0 39 -79 66
-108 37z m76 -10 c20 -20 14 -57 -12 -69 -32 -15 -66 4 -66 36 0 37 52 59 78
33z"/>
<path d="M4221 3275 c-41 -36 -81 -75 -89 -87 l-16 -22 29 21 c30 22 164 153
155 153 -3 -1 -38 -30 -79 -65z"/>
<path d="M4251 3215 c-83 -43 -128 -74 -86 -59 26 9 175 94 175 100 0 6 1 7
-89 -41z"/>
<path d="M4368 3173 c7 -3 16 -2 19 1 4 3 -2 6 -13 5 -11 0 -14 -3 -6 -6z"/>
<path d="M3785 3145 c74 -23 125 -32 113 -20 -6 7 -160 45 -178 44 -8 0 21
-11 65 -24z"/>
<path d="M4265 3155 c-71 -16 -118 -33 -93 -34 10 -1 53 9 95 20 115 31 113
39 -2 14z"/>
<path d="M3750 3090 c-26 -5 -11 -8 55 -9 61 0 85 2 75 9 -17 11 -78 11 -130
0z"/>
<path d="M4180 3090 c-10 -7 14 -9 75 -9 75 1 83 3 50 10 -55 11 -107 11 -125
-1z"/>
<path d="M3792 3038 c-40 -12 -70 -23 -68 -26 6 -5 145 27 166 39 27 15 -20 9
-98 -13z"/>
<path d="M4170 3051 c19 -11 161 -43 166 -38 5 5 -148 47 -167 47 -11 -1 -11
-2 1 -9z"/>
<path d="M4150 3021 c22 -17 190 -102 190 -97 0 6 -158 93 -185 101 -17 6 -17
5 -5 -4z"/>
<path d="M3688 3003 c7 -3 16 -2 19 1 4 3 -2 6 -13 5 -11 0 -14 -3 -6 -6z"/>
<path d="M4358 3003 c7 -3 16 -2 19 1 4 3 -2 6 -13 5 -11 0 -14 -3 -6 -6z"/>
<path d="M3845 2924 c-44 -41 -71 -70 -60 -65 29 15 151 128 145 134 -3 3 -41
-28 -85 -69z"/>
<path d="M4130 2993 c0 -5 30 -36 68 -68 100 -87 112 -95 57 -36 -58 61 -125
117 -125 104z"/>
<path d="M4020 2886 c0 -36 5 -68 10 -71 6 -4 10 20 10 64 0 41 -4 71 -10 71
-6 0 -10 -28 -10 -64z"/>
<path d="M3200 3414 c0 -8 5 -12 10 -9 6 4 8 11 5 16 -9 14 -15 11 -15 -7z"/>
<path d="M3240 3420 c0 -5 5 -10 10 -10 6 0 10 5 10 10 0 6 -4 10 -10 10 -5 0
-10 -4 -10 -10z"/>
<path d="M3052 3411 c2 -7 7 -12 11 -12 12 1 9 15 -3 20 -7 2 -11 -2 -8 -8z"/>
<path d="M3100 3410 c0 -5 7 -10 16 -10 8 0 12 5 9 10 -3 6 -10 10 -16 10 -5
0 -9 -4 -9 -10z"/>
<path d="M3150 3410 c0 -5 5 -10 10 -10 6 0 10 5 10 10 0 6 -4 10 -10 10 -5 0
-10 -4 -10 -10z"/>
<path d="M3061 3354 c0 -11 3 -14 6 -6 3 7 2 16 -1 19 -3 4 -6 -2 -5 -13z"/>
<path d="M3105 3360 c-3 -5 -1 -10 4 -10 6 0 11 5 11 10 0 6 -2 10 -4 10 -3 0
-8 -4 -11 -10z"/>
<path d="M3155 3360 c-3 -5 -1 -10 4 -10 6 0 11 5 11 10 0 6 -2 10 -4 10 -3 0
-8 -4 -11 -10z"/>
<path d="M3200 3359 c0 -5 5 -7 10 -4 6 3 10 8 10 11 0 2 -4 4 -10 4 -5 0 -10
-5 -10 -11z"/>
<path d="M3060 3295 c0 -8 5 -15 10 -15 6 0 10 7 10 15 0 8 -4 15 -10 15 -5 0
-10 -7 -10 -15z"/>
<path d="M3111 3294 c0 -11 3 -14 6 -6 3 7 2 16 -1 19 -3 4 -6 -2 -5 -13z"/>
<path d="M3155 3300 c-3 -5 -1 -10 4 -10 6 0 11 5 11 10 0 6 -2 10 -4 10 -3 0
-8 -4 -11 -10z"/>
<path d="M3200 3300 c0 -5 5 -10 10 -10 6 0 10 5 10 10 0 6 -4 10 -10 10 -5 0
-10 -4 -10 -10z"/>
<path d="M3240 3300 c0 -5 5 -10 10 -10 6 0 10 5 10 10 0 6 -4 10 -10 10 -5 0
-10 -4 -10 -10z"/>
<path d="M3111 3234 c0 -11 3 -14 6 -6 3 7 2 16 -1 19 -3 4 -6 -2 -5 -13z"/>
<path d="M3155 3240 c-3 -5 -1 -10 4 -10 6 0 11 5 11 10 0 6 -2 10 -4 10 -3 0
-8 -4 -11 -10z"/>
<path d="M3205 3240 c-3 -5 -1 -10 4 -10 6 0 11 5 11 10 0 6 -2 10 -4 10 -3 0
-8 -4 -11 -10z"/>
<path d="M3110 3180 c0 -5 5 -10 11 -10 5 0 7 5 4 10 -3 6 -8 10 -11 10 -2 0
-4 -4 -4 -10z"/>
<path d="M2820 3369 c0 -5 5 -7 10 -4 6 3 10 8 10 11 0 2 -4 4 -10 4 -5 0 -10
-5 -10 -11z"/>
<path d="M2846 3344 c-5 -14 -4 -15 9 -4 17 14 19 20 6 20 -5 0 -12 -7 -15
-16z"/>
<path d="M2877 3313 c-4 -3 -7 -13 -7 -22 1 -13 3 -13 11 2 11 19 8 33 -4 20z"/>
<path d="M3479 3293 c-13 -15 -12 -15 9 -4 23 12 28 21 13 21 -5 0 -15 -7 -22
-17z"/>
<path d="M2896 3264 c-10 -25 1 -29 14 -5 6 12 7 21 1 21 -5 0 -12 -7 -15 -16z"/>
<path d="M2920 3215 c-7 -9 -10 -18 -7 -21 3 -3 10 4 17 15 13 25 8 27 -10 6z"/>
<path d="M2953 3188 c-23 -30 -24 -41 -2 -21 12 12 20 25 17 28 -3 3 -10 0
-15 -7z"/>
<path d="M2950 3125 c-20 -24 -6 -28 15 -5 10 11 13 20 8 20 -6 0 -16 -7 -23
-15z"/>
<path d="M2986 3098 c-3 -13 -1 -27 4 -32 7 -7 10 1 10 22 0 37 -5 41 -14 10z"/>
<path d="M3035 3070 c3 -5 8 -10 11 -10 2 0 4 5 4 10 0 6 -5 10 -11 10 -5 0
-7 -4 -4 -10z"/>
<path d="M2928 2813 c7 -3 16 -2 19 1 4 3 -2 6 -13 5 -11 0 -14 -3 -6 -6z"/>
<path d="M3060 2810 c0 -5 5 -10 10 -10 6 0 10 5 10 10 0 6 -4 10 -10 10 -5 0
-10 -4 -10 -10z"/>
<path d="M2870 2770 c0 -5 4 -10 9 -10 6 0 13 5 16 10 3 6 -1 10 -9 10 -9 0
-16 -4 -16 -10z"/>
<path d="M2930 2769 c0 -5 5 -7 10 -4 6 3 10 8 10 11 0 2 -4 4 -10 4 -5 0 -10
-5 -10 -11z"/>
<path d="M3060 2770 c0 -5 5 -10 10 -10 6 0 10 5 10 10 0 6 -4 10 -10 10 -5 0
-10 -4 -10 -10z"/>
<path d="M2870 2720 c0 -5 7 -10 15 -10 8 0 15 5 15 10 0 6 -7 10 -15 10 -8 0
-15 -4 -15 -10z"/>
<path d="M2925 2721 c-6 -11 9 -23 19 -14 9 9 7 23 -3 23 -6 0 -12 -4 -16 -9z"/>
<path d="M2975 2720 c-3 -5 1 -10 10 -10 9 0 13 5 10 10 -3 6 -8 10 -10 10 -2
0 -7 -4 -10 -10z"/>
<path d="M2875 2670 c-3 -5 1 -10 10 -10 9 0 13 5 10 10 -3 6 -8 10 -10 10 -2
0 -7 -4 -10 -10z"/>
<path d="M2930 2660 c0 -5 5 -10 10 -10 6 0 10 5 10 10 0 6 -4 10 -10 10 -5 0
-10 -4 -10 -10z"/>
<path d="M2980 2659 c0 -5 5 -7 10 -4 6 3 10 8 10 11 0 2 -4 4 -10 4 -5 0 -10
-5 -10 -11z"/>
<path d="M3060 2660 c0 -5 5 -10 10 -10 6 0 10 5 10 10 0 6 -4 10 -10 10 -5 0
-10 -4 -10 -10z"/>
<path d="M3110 2660 c0 -5 5 -10 10 -10 6 0 10 5 10 10 0 6 -4 10 -10 10 -5 0
-10 -4 -10 -10z"/>
<path d="M4870 3410 c0 -5 5 -10 10 -10 6 0 10 5 10 10 0 6 -4 10 -10 10 -5 0
-10 -4 -10 -10z"/>
<path d="M4920 3409 c0 -5 5 -7 10 -4 6 3 10 8 10 11 0 2 -4 4 -10 4 -5 0 -10
-5 -10 -11z"/>
<path d="M4966 3411 c-4 -5 -2 -12 3 -15 5 -4 12 -2 15 3 4 5 2 12 -3 15 -5 4
-12 2 -15 -3z"/>
<path d="M5010 3400 c0 -5 7 -10 16 -10 8 0 12 5 9 10 -3 6 -10 10 -16 10 -5
0 -9 -4 -9 -10z"/>
<path d="M4920 3360 c0 -5 5 -10 11 -10 5 0 7 5 4 10 -3 6 -8 10 -11 10 -2 0
-4 -4 -4 -10z"/>
<path d="M4965 3359 c-10 -15 3 -25 16 -12 7 7 7 13 1 17 -6 3 -14 1 -17 -5z"/>
<path d="M5010 3350 c0 -5 7 -10 16 -10 8 0 12 5 9 10 -3 6 -10 10 -16 10 -5
0 -9 -4 -9 -10z"/>
<path d="M5060 3345 c0 -8 5 -15 10 -15 6 0 10 7 10 15 0 8 -4 15 -10 15 -5 0
-10 -7 -10 -15z"/>
<path d="M5100 3350 c0 -5 7 -10 16 -10 8 0 12 5 9 10 -3 6 -10 10 -16 10 -5
0 -9 -4 -9 -10z"/>
<path d="M4709 3310 c-31 -25 -23 -25 27 0 29 14 34 19 18 20 -12 0 -32 -9
-45 -20z"/>
<path d="M4880 3299 c0 -5 5 -7 10 -4 6 3 10 8 10 11 0 2 -4 4 -10 4 -5 0 -10
-5 -10 -11z"/>
<path d="M4920 3299 c0 -5 5 -7 10 -4 6 3 10 8 10 11 0 2 -4 4 -10 4 -5 0 -10
-5 -10 -11z"/>
<path d="M4960 3300 c0 -5 5 -10 10 -10 6 0 10 5 10 10 0 6 -4 10 -10 10 -5 0
-10 -4 -10 -10z"/>
<path d="M5010 3295 c0 -9 5 -15 11 -13 6 2 11 8 11 13 0 5 -5 11 -11 13 -6 2
-11 -4 -11 -13z"/>
<path d="M5060 3296 c0 -9 5 -16 10 -16 6 0 10 4 10 9 0 6 -4 13 -10 16 -5 3
-10 -1 -10 -9z"/>
<path d="M5115 3301 c-3 -5 -1 -12 5 -16 5 -3 10 1 10 9 0 18 -6 21 -15 7z"/>
<path d="M4723 3288 c-22 -29 -24 -41 -4 -20 35 35 58 27 24 -10 -19 -21 -5
-24 22 -4 11 8 16 19 12 30 -8 19 -40 21 -54 4z"/>
<path d="M5020 3245 c0 -8 5 -15 10 -15 6 0 10 7 10 15 0 8 -4 15 -10 15 -5 0
-10 -7 -10 -15z"/>
<path d="M5071 3244 c0 -11 3 -14 6 -6 3 7 2 16 -1 19 -3 4 -6 -2 -5 -13z"/>
<path d="M4586 3213 c-12 -13 -6 -54 13 -81 12 -17 21 -53 25 -97 4 -47 16
-90 36 -130 26 -54 28 -65 19 -104 -17 -77 -65 -154 -80 -129 -12 19 -22 3
-14 -22 7 -22 7 -22 36 6 37 35 69 97 69 132 0 36 13 54 32 47 21 -8 60 44 87
114 11 30 19 56 17 59 -2 2 -12 -18 -22 -44 -20 -54 -59 -104 -80 -104 -25 0
-15 23 51 123 36 54 65 101 65 103 0 15 -22 -13 -58 -73 -22 -38 -52 -79 -66
-92 -25 -23 -27 -24 -39 -6 -12 16 -9 22 32 59 25 22 47 44 49 48 2 4 15 24
28 44 14 20 23 38 20 41 -2 2 -17 -17 -32 -42 -31 -55 -102 -111 -118 -95 -7
7 -1 19 20 38 17 15 23 21 14 15 -19 -15 -50 -17 -50 -4 0 5 14 14 30 21 17 7
33 17 36 22 4 6 -3 5 -16 -2 -22 -12 -50 -7 -50 9 0 5 14 14 30 20 17 5 30 15
30 21 0 6 -10 4 -24 -5 -21 -14 -24 -14 -30 0 -4 13 4 21 35 33 33 13 38 17
23 22 -10 4 -24 1 -32 -7 -18 -17 -44 -17 -68 3 -18 14 -17 15 19 9 33 -5 38
-4 35 11 -3 18 -61 48 -72 37z m64 -33 c0 -5 -4 -10 -10 -10 -5 0 -10 5 -10
10 0 6 5 10 10 10 6 0 10 -4 10 -10z"/>
<path d="M5071 3194 c0 -11 3 -14 6 -6 3 7 2 16 -1 19 -3 4 -6 -2 -5 -13z"/>
<path d="M4906 3171 c-4 -5 -2 -12 3 -15 5 -4 12 -2 15 3 4 5 2 12 -3 15 -5 4
-12 2 -15 -3z"/>
<path d="M5120 3144 c0 -8 5 -12 10 -9 6 4 8 11 5 16 -9 14 -15 11 -15 -7z"/>
<path d="M4779 3127 c-36 -50 -53 -81 -42 -74 16 10 75 97 65 97 -4 0 -14 -11
-23 -23z"/>
<path d="M5070 3139 c0 -5 5 -7 10 -4 6 3 10 8 10 11 0 2 -4 4 -10 4 -5 0 -10
-5 -10 -11z"/>
<path d="M4540 2820 c0 -5 7 -10 15 -10 8 0 15 5 15 10 0 6 -7 10 -15 10 -8 0
-15 -4 -15 -10z"/>
<path d="M4600 2820 c0 -5 5 -10 11 -10 5 0 7 5 4 10 -3 6 -8 10 -11 10 -2 0
-4 -4 -4 -10z"/>
<path d="M4956 2801 c-3 -5 1 -11 9 -15 9 -3 15 0 15 9 0 16 -16 20 -24 6z"/>
<path d="M4500 2770 c0 -5 5 -10 10 -10 6 0 10 5 10 10 0 6 -4 10 -10 10 -5 0
-10 -4 -10 -10z"/>
<path d="M4540 2770 c0 -5 5 -10 10 -10 6 0 10 5 10 10 0 6 -4 10 -10 10 -5 0
-10 -4 -10 -10z"/>
<path d="M4590 2770 c0 -5 5 -10 11 -10 5 0 7 5 4 10 -3 6 -8 10 -11 10 -2 0
-4 -4 -4 -10z"/>
<path d="M4950 2750 c0 -5 7 -10 15 -10 8 0 15 5 15 10 0 6 -7 10 -15 10 -8 0
-15 -4 -15 -10z"/>
<path d="M4540 2720 c0 -5 5 -10 10 -10 6 0 10 5 10 10 0 6 -4 10 -10 10 -5 0
-10 -4 -10 -10z"/>
<path d="M4450 2710 c0 -5 5 -10 10 -10 6 0 10 5 10 10 0 6 -4 10 -10 10 -5 0
-10 -4 -10 -10z"/>
<path d="M4490 2710 c0 -5 5 -10 10 -10 6 0 10 5 10 10 0 6 -4 10 -10 10 -5 0
-10 -4 -10 -10z"/>
<path d="M4950 2700 c0 -5 5 -10 10 -10 6 0 10 5 10 10 0 6 -4 10 -10 10 -5 0
-10 -4 -10 -10z"/>
<path d="M4405 2660 c-3 -5 -1 -10 4 -10 6 0 11 5 11 10 0 6 -2 10 -4 10 -3 0
-8 -4 -11 -10z"/>
<path d="M4450 2660 c0 -5 5 -10 10 -10 6 0 10 5 10 10 0 6 -4 10 -10 10 -5 0
-10 -4 -10 -10z"/>
<path d="M4540 2660 c0 -5 5 -10 10 -10 6 0 10 5 10 10 0 6 -4 10 -10 10 -5 0
-10 -4 -10 -10z"/>
<path d="M4360 2650 c0 -5 5 -10 10 -10 6 0 10 5 10 10 0 6 -4 10 -10 10 -5 0
-10 -4 -10 -10z"/>
<path d="M5220 3120 c0 -5 5 -10 10 -10 6 0 10 5 10 10 0 6 -4 10 -10 10 -5 0
-10 -4 -10 -10z"/>
<path d="M2663 3245 c0 -22 2 -30 4 -17 2 12 2 30 0 40 -3 9 -5 -1 -4 -23z"/>
<path d="M2623 3130 c0 -47 2 -66 4 -42 2 23 2 61 0 85 -2 23 -4 4 -4 -43z"/>
<path d="M2663 2805 c0 -44 2 -61 4 -37 2 23 2 59 0 80 -2 20 -4 1 -4 -43z"/>
<path d="M3385 2940 c-3 -5 -1 -10 4 -10 6 0 11 5 11 10 0 6 -2 10 -4 10 -3 0
-8 -4 -11 -10z"/>
<path d="M651 1649 l-143 -192 24 -19 c12 -9 26 -18 30 -18 3 0 66 73 139 163
73 89 138 169 146 178 11 13 8 20 -21 48 l-33 32 -142 -192z"/>
<path d="M7173 1808 l-32 -33 145 -177 c80 -98 148 -178 152 -178 4 0 18 9 31
19 l23 18 -132 179 c-73 98 -138 185 -144 192 -9 10 -19 5 -43 -20z"/>
<path d="M826 1523 c-142 -192 -146 -200 -103 -227 9 -6 18 -8 20 -6 52 62
276 339 281 348 5 9 -2 24 -20 43 -15 16 -30 29 -33 29 -3 0 -68 -84 -145
-187z"/>
<path d="M6996 1681 c-19 -20 -25 -34 -20 -44 22 -37 280 -346 290 -347 18 0
47 38 38 52 -15 28 -269 367 -275 368 -3 0 -18 -13 -33 -29z"/>
<path d="M1380 1381 c-8 -17 -3 -23 35 -48 49 -31 58 -60 29 -101 -18 -26 -50
-28 -82 -6 -21 14 -23 14 -32 -11 -13 -33 -12 -51 0 -96 14 -49 71 -106 120
-119 44 -12 45 -14 25 -50 -20 -36 -19 -43 15 -62 l30 -17 76 152 c42 84 77
153 78 154 1 1 65 -25 142 -58 76 -33 149 -64 161 -69 21 -9 22 -12 11 -37 -7
-16 -13 -29 -14 -31 0 -1 -44 16 -97 38 -53 22 -107 40 -120 40 -29 0 -65 -32
-73 -66 -10 -40 2 -127 25 -178 17 -39 24 -46 49 -46 40 0 42 6 20 52 -27 56
-36 149 -15 166 12 10 29 7 93 -18 44 -18 83 -35 87 -39 4 -4 -13 -56 -37
-114 l-45 -107 36 -15 c19 -8 38 -13 42 -10 4 2 36 76 70 165 35 89 68 160 75
160 17 0 79 -21 89 -29 4 -4 -20 -81 -53 -171 -33 -90 -60 -166 -60 -170 0
-10 74 -30 81 -22 3 4 32 82 64 173 54 158 58 166 81 161 18 -3 26 1 33 19 7
21 5 25 -23 35 -28 10 -36 23 -80 131 l-49 121 -29 -10 c-15 -6 -28 -14 -28
-20 0 -5 23 -50 50 -100 28 -50 49 -92 48 -93 -5 -4 -185 59 -303 106 -124 49
-289 131 -415 208 -47 28 -88 51 -92 51 -4 0 -12 -9 -18 -19z m190 -141 c22
-11 40 -24 39 -28 0 -4 -19 -41 -42 -82 -40 -70 -45 -75 -79 -78 -29 -2 -43 3
-67 25 -17 15 -32 39 -33 53 -3 21 1 24 21 22 51 -8 111 42 111 93 0 19 3 19
50 -5z"/>
<path d="M6612 1360 c-32 -19 -33 -22 -20 -43 8 -12 18 -27 22 -34 5 -9 16 -7
42 9 19 11 33 23 32 27 -2 3 -10 18 -17 34 -17 32 -17 32 -59 7z"/>
<path d="M6455 1334 c-122 -73 -453 -206 -697 -280 -84 -25 -154 -47 -155 -48
-9 -8 13 -46 26 -46 14 0 347 97 394 115 13 6 21 -1 32 -29 8 -19 15 -37 15
-40 0 -3 -45 -19 -99 -37 l-99 -33 42 -33 c84 -66 97 -134 27 -141 -50 -5
-125 52 -183 138 l-16 25 -27 -26 -26 -25 35 -46 c89 -117 226 -158 305 -93
47 40 47 111 0 161 l-22 24 36 15 c20 8 40 15 45 15 5 0 28 -47 52 -105 26
-65 48 -105 57 -105 12 0 49 15 61 25 1 1 -29 76 -68 166 -38 90 -70 168 -70
174 0 16 137 67 160 60 11 -4 27 -20 36 -37 19 -37 7 -72 -31 -90 -32 -14 -32
-28 3 -60 54 -52 127 -62 199 -27 24 12 48 30 55 42 10 19 12 18 35 -26 l24
-47 29 15 c17 9 30 21 30 27 0 6 -37 83 -82 170 -74 142 -81 160 -66 169 14 8
15 14 6 34 -13 30 -12 30 -63 -1z m22 -168 c38 -76 41 -88 32 -116 -18 -51
-100 -78 -143 -47 -16 12 -16 14 3 31 42 38 37 100 -11 153 l-20 21 38 21 c22
11 44 20 49 21 6 0 29 -38 52 -84z"/>
<path d="M6724 1157 c-31 -22 -31 -22 -16 -55 19 -38 28 -39 66 -9 l29 24 -19
31 c-10 18 -21 32 -24 32 -3 -1 -19 -11 -36 -23z"/>
<path d="M4912 1057 l-21 -22 112 -65 112 -65 -120 -17 c-355 -51 -513 -61
-963 -62 l-434 -1 -19 24 c-19 23 -25 67 -11 87 14 22 53 35 83 29 25 -6 29
-4 29 14 0 48 -95 51 -150 5 -37 -31 -41 -81 -9 -125 l20 -29 -28 0 c-46 0
-433 30 -495 39 -45 6 -58 5 -63 -7 -11 -29 -4 -40 30 -46 19 -4 35 -10 34
-14 0 -4 -8 -47 -17 -96 l-17 -88 -45 -19 c-62 -25 -132 -25 -154 0 -40 44 24
90 105 77 28 -4 39 -3 39 6 0 28 -19 39 -75 46 -53 6 -61 11 -78 40 -21 35
-17 76 8 86 24 9 43 -3 54 -36 8 -23 16 -29 33 -26 35 5 37 51 3 82 -52 48
-143 39 -180 -18 -20 -31 -15 -58 20 -110 l25 -37 -25 -22 c-13 -12 -27 -34
-31 -49 -11 -50 81 -118 161 -118 11 0 44 6 73 14 l52 13 -6 -52 -6 -53 43 -4
c24 -3 45 -4 47 -2 2 1 17 82 32 179 16 98 31 179 33 182 2 2 41 1 86 -3 90
-8 86 -3 75 -88 -6 -44 -8 -46 -40 -46 -18 0 -35 -4 -38 -9 -7 -11 46 -78 85
-107 38 -28 57 -22 65 22 6 32 8 34 48 34 64 0 115 -11 111 -24 -2 -6 -6 -46
-9 -88 l-6 -78 49 0 48 0 6 73 c4 39 9 120 13 180 l7 107 77 0 c42 0 105 -3
139 -6 l62 -7 -3 -56 c-3 -48 -6 -56 -24 -59 -13 -2 -33 9 -53 29 -29 29 -34
30 -61 19 -17 -7 -30 -15 -30 -19 0 -12 127 -164 178 -215 52 -50 65 -52 106
-21 17 13 14 18 -48 76 -36 33 -66 65 -66 69 0 4 13 10 29 13 48 10 61 31 61
102 l0 63 210 7 c116 4 213 6 215 4 1 -2 5 -17 7 -34 l3 -30 -125 -5 c-122 -5
-153 -13 -180 -44 -8 -11 -29 -16 -62 -16 l-49 0 18 -25 c13 -18 27 -24 54
-25 31 0 38 -5 49 -30 12 -30 84 -102 133 -134 26 -17 28 -17 58 1 l30 20 -50
39 c-59 44 -104 104 -99 131 4 21 52 32 155 32 l72 1 5 -42 c3 -24 9 -77 13
-118 l8 -75 45 4 c25 1 46 4 47 4 0 1 -8 80 -18 176 -10 96 -18 175 -16 177 1
1 267 28 381 37 15 2 21 -7 27 -30 5 -27 3 -33 -10 -33 -9 -1 -65 -7 -124 -14
-88 -11 -113 -18 -133 -37 -49 -46 -24 -117 67 -189 86 -68 99 -72 131 -45
l27 23 -42 25 c-50 30 -112 93 -121 124 -9 29 11 39 99 47 39 4 82 9 96 12 25
5 26 3 38 -68 7 -40 17 -95 23 -121 l10 -48 41 6 c23 4 43 9 45 10 2 2 -12 81
-31 177 -20 95 -34 174 -32 176 5 5 110 20 114 16 2 -2 22 -81 43 -176 22 -95
40 -174 41 -175 8 -7 87 12 87 21 0 6 -18 85 -40 174 -22 90 -37 168 -34 173
3 5 14 9 25 9 21 0 22 4 10 35 -6 15 -16 19 -42 17 -29 -3 -50 9 -144 77 -60
45 -112 81 -116 81 -3 0 -15 -10 -27 -23z m-1396 -290 c3 -3 3 -30 -1 -61 l-7
-56 -74 0 -74 0 0 28 c0 15 3 44 7 66 l6 38 69 -4 c38 -3 71 -8 74 -11z"/>
</g>
</svg>
